<svg xmlns="http://www.w3.org/2000/svg" width="102" height="165" viewBox="0 0 102 165">
  <g fill="none" transform="rotate(-45 86.35 104.435)">
    <path fill="#7BCC29" d="M134.683881,61.4002676 C125.406848,58.3078315 121.835163,60.2242785 108.507195,67.3239311 C106.61247,68.3036012 104.499979,69.4144256 102.256883,70.6124112 L70.2216979,38.5772259 C71.3759654,36.4212918 72.4650682,34.3742404 73.4670098,32.5012365 C81.3505634,17.9101184 82.4828344,14.7739642 79.5867173,6.12823112 C78.3012955,2.22989745 82.3959482,-1.29806977 86.0330731,0.553212537 C96.7912973,5.95390868 100.188385,14.882847 101.23377,21.8079022 C116.173533,10.657865 125.516281,5.36577667 131.091024,4.88652744 C132.463058,4.77791961 133.704761,5.23517232 134.619267,6.10650956 C135.664651,7.02101497 136.252783,8.39332301 136.100183,9.89568549 C135.599487,15.4927006 130.241959,24.8571701 118.982764,39.8618228 C127.432728,41.081805 135.207399,44.7620981 140.281721,54.9759083 C142.110457,58.6344799 138.582215,62.7285826 134.683881,61.4002676 Z"/>
    <path fill="#6EB825" d="M134.683881,61.4002676 C125.406848,58.3078315 121.835163,60.2242785 108.507195,67.3239311 C106.61247,68.3036012 104.499979,69.4144256 102.256883,70.6124112 L86.1848491,54.5403771 L134.618442,6.10678452 C135.663826,7.02128993 136.251959,8.39359797 136.099358,9.89596044 C135.598662,15.4929756 130.241134,24.857445 118.981939,39.8620978 C127.431903,41.0820799 135.206574,44.7623731 140.280897,54.9761832 C142.110457,58.6344799 138.582215,62.7285826 134.683881,61.4002676 Z"/>
    <path fill="#F9BC35" d="M105.162349,80.9939448 C104.038327,69.7680196 99.196617,58.8406973 90.6286966,50.2293337 L90.5610573,50.1616944 C81.9406202,41.5844255 71.0102732,36.7306179 59.7780241,35.5939476 C56.7136336,35.2829717 53.6244969,35.2521766 50.5537824,35.4922137 C38.9489672,36.4130431 27.608935,41.2915968 18.7391123,50.1182513 L12.1852485,56.6289469 C5.34487997,63.4695904 1.39650421,72.0963515 0.309326095,80.9939448 C-0.0632400017,84.0613599 -0.100359133,87.1568205 0.204567658,90.2242355 C1.11302403,99.4605752 5.09219492,108.426083 12.0958876,115.429776 C16.1182267,119.479885 17.3654295,120.736437 18.6744976,122.048254 L18.6744976,122.051279 C19.9310489,123.310855 21.246166,124.625972 25.1423,128.519081 C32.1426932,135.562642 41.2005862,139.615777 50.5540574,140.530557 C53.6123989,140.832459 56.698236,140.79534 59.7565775,140.416725 C68.5557363,139.338895 77.1085341,135.439737 83.9425786,128.605417 L90.4964425,122.094722 L90.5827788,122.008385 C99.4311549,113.160009 104.325106,101.813928 105.255284,90.1967399 C105.501095,87.1320744 105.470575,84.0522863 105.162349,80.9939448 Z"/>
    <g fill="#FF9E31" transform="translate(0 50.042)">
      <path d="M105.254734,40.1543766 C104.324556,51.7715649 99.4308799,63.1176461 90.5825039,71.9660221 L90.4961675,72.0523585 L83.9423037,78.5630542 C77.1082592,85.3970987 68.5554614,89.2962572 59.7563025,90.3743618 C56.697961,90.7532519 53.6121239,90.7900961 50.5537824,90.4881938 C41.2003112,89.5734134 32.1424183,85.5202792 25.142025,78.4767178 C21.245891,74.5838833 19.9310489,73.2687662 18.6742226,72.0089154 L18.6742226,72.0058908 L90.5607823,0.119331134 L90.6284216,0.18697044 C99.196617,8.79833398 104.038052,19.7253814 105.162074,30.9515815 C105.470575,34.010198 105.501095,37.0899861 105.254734,40.1543766 Z"/>
      <path d="M105.254734,40.1543766 L59.7653761,40.1667496 L50.5535075,40.1697741 L0.204567658,40.1821472 C-0.100359133,37.1147321 -0.0635149583,34.0192715 0.309326095,30.9518565 L105.162624,30.9518565 C105.470575,34.010198 105.501095,37.0899861 105.254734,40.1543766 Z"/>
    </g>
    <path fill="#FF812E" d="M105.153275,81.043712 C105.151625,81.0272146 105.149151,81.0104422 105.147776,80.9942198 L59.7310065,80.9942198 L50.5130889,90.2121374 L50.5537824,90.2121374 L59.765651,90.2091129 L105.247035,90.1967399 C105.334197,89.158779 105.387263,88.1131193 105.407885,87.06471 C105.40981,86.9742493 105.413109,86.8837886 105.414209,86.7933279 C105.417233,86.5879354 105.415859,86.381993 105.416134,86.1760505 C105.416409,85.9932044 105.418608,85.8103583 105.416684,85.6277872 C105.401836,84.0976541 105.315225,82.5655963 105.153275,81.043712 Z"/>
    <path fill="#FF9E31" d="M87.1884405,48.6494335 L23.1276935,48.6494335 C20.4061738,48.6494335 18.1999226,50.8554097 18.1999226,53.5772044 L18.1999226,117.637951 C18.1999226,120.359471 20.4058988,122.565722 23.1276935,122.565722 L87.1884405,122.565722 C89.9096852,122.565722 92.1162114,120.359746 92.1162114,117.637951 L92.1162114,53.5772044 C92.1162114,50.8556847 89.9099602,48.6494335 87.1884405,48.6494335 Z M82.5686209,113.326083 L27.4395618,113.326083 L27.4395618,57.8887978 L82.5686209,57.8887978 L82.5686209,113.326083 Z"/>
    <path fill="#FF812E" d="M82.5686209,58.1563305 L82.5686209,113.326083 L27.4395618,113.326083 L27.4395618,113.28539 L19.6241974,121.100754 C20.5172562,122.004261 21.7570352,122.565172 23.1276935,122.565172 L87.1884405,122.565172 C89.9096852,122.565172 92.1162114,120.359196 92.1162114,117.637401 L92.1162114,53.5769295 C92.1162114,52.2057213 91.5553001,50.9664922 90.6517929,50.0734334 L90.5621571,50.1630692 L82.5686209,58.1563305 Z"/>
    <path fill="#FF9E31" d="M59.7563025,140.41645 L59.765651,90.2088379 L59.7686755,80.9939448 L59.7780241,35.5939476 C56.7136336,35.2829717 53.6244969,35.2521766 50.5537824,35.4922137 L50.5537824,80.9939448 L50.5537824,90.2118625 L50.5537824,140.530282 L59.7563025,140.41645 Z"/>
    <path fill="#FF812E" d="M50.5537824,90.1711689 L50.5537824,90.2118625 L50.5537824,140.522858 C50.5768788,140.525333 50.5999751,140.526983 50.6230715,140.529182 L59.4904195,140.419475 C59.5753811,140.408201 59.6617175,140.399953 59.746679,140.38813 C59.7497035,140.387855 59.753278,140.387305 59.7563025,140.38703 L59.765651,90.2091129 L59.7686755,80.9942198 L59.7686755,80.9565507 L50.5537824,90.1711689 Z"/>
  </g>
</svg>
