<svg xmlns="http://www.w3.org/2000/svg" width="403" height="537" viewBox="0 0 403 537">
  <defs>
    <linearGradient id="background-a" x1="50%" x2="50%" y1="0%" y2="58.745%">
      <stop offset="0%" stop-color="#334049"/>
      <stop offset="100%" stop-color="#6E8491"/>
    </linearGradient>
  </defs>
  <g fill="none" fill-rule="evenodd">
    <rect width="403" height="403" fill="url(#background-a)"/>
    <polygon fill="#5D6C78" points="2.125 92.469 74.266 283.276 96.141 208.535 195.227 348.915 217.773 256.769 251.672 320.335 285.25 183.469 327.453 348.915 363.5 256.769 402.906 320.335 430.875 534.637 285.25 602.273 -33.313 569.536 -22.297 160.814"/>
    <polygon fill="#1B2428" points="20 450.094 55.375 241 87.121 464.086"/>
    <ellipse cx="201.5" cy="494.604" fill="#1F292C" opacity=".535" rx="230.5" ry="91.604"/>
    <path fill="#FFF" d="M14.5,12 C13.6715729,12 13,11.3284271 13,10.5 C13,9.67157288 13.6715729,9 14.5,9 C15.3284271,9 16,9.67157288 16,10.5 C16,11.3284271 15.3284271,12 14.5,12 Z M40.5,23 C40.2238576,23 40,22.7761424 40,22.5 C40,22.2238576 40.2238576,22 40.5,22 C40.7761424,22 41,22.2238576 41,22.5 C41,22.7761424 40.7761424,23 40.5,23 Z M120.5,13 C120.223858,13 120,12.7761424 120,12.5 C120,12.2238576 120.223858,12 120.5,12 C120.776142,12 121,12.2238576 121,12.5 C121,12.7761424 120.776142,13 120.5,13 Z M64.9768812,31.3087289 C64.3066696,31.7956661 63.3686151,31.6470929 62.8816779,30.9768812 C62.3947406,30.3066696 62.5433139,29.3686151 63.2135255,28.8816779 C63.8837371,28.3947406 64.8217916,28.5433139 65.3087289,29.2135255 C65.7956661,29.8837371 65.6470929,30.8217916 64.9768812,31.3087289 Z M23.5,33 C23.2238576,33 23,32.7761424 23,32.5 C23,32.2238576 23.2238576,32 23.5,32 C23.7761424,32 24,32.2238576 24,32.5 C24,32.7761424 23.7761424,33 23.5,33 Z M50.9768812,33.3087289 C50.3066696,33.7956661 49.3686151,33.6470929 48.8816779,32.9768812 C48.3947406,32.3066696 48.5433139,31.3686151 49.2135255,30.8816779 C49.8837371,30.3947406 50.8217916,30.5433139 51.3087289,31.2135255 C51.7956661,31.8837371 51.6470929,32.8217916 50.9768812,33.3087289 Z M54.9768812,58.3087289 C54.3066696,58.7956661 53.3686151,58.6470929 52.8816779,57.9768812 C52.3947406,57.3066696 52.5433139,56.3686151 53.2135255,55.8816779 C53.8837371,55.3947406 54.8217916,55.5433139 55.3087289,56.2135255 C55.7956661,56.8837371 55.6470929,57.8217916 54.9768812,58.3087289 Z M26.9768812,54.3087289 C26.3066696,54.7956661 25.3686151,54.6470929 24.8816779,53.9768812 C24.3947406,53.3066696 24.5433139,52.3686151 25.2135255,51.8816779 C25.8837371,51.3947406 26.8217916,51.5433139 27.3087289,52.2135255 C27.7956661,52.8837371 27.6470929,53.8217916 26.9768812,54.3087289 Z M60.9768812,9.30872886 C60.3066696,9.79566611 59.3686151,9.64709287 58.8816779,8.97688125 C58.3947406,8.30666963 58.5433139,7.36861512 59.2135255,6.88167788 C59.8837371,6.39474063 60.8217916,6.54331387 61.3087289,7.21352549 C61.7956661,7.88373711 61.6470929,8.82179162 60.9768812,9.30872886 Z M82.9768812,16.3087289 C82.3066696,16.7956661 81.3686151,16.6470929 80.8816779,15.9768812 C80.3947406,15.3066696 80.5433139,14.3686151 81.2135255,13.8816779 C81.8837371,13.3947406 82.8217916,13.5433139 83.3087289,14.2135255 C83.7956661,14.8837371 83.6470929,15.8217916 82.9768812,16.3087289 Z M8.99229375,19.1029096 C8.76888988,19.265222 8.45620504,19.2156976 8.29389263,18.9922937 C8.13158021,18.7688899 8.18110462,18.456205 8.4045085,18.2938926 C8.62791237,18.1315802 8.94059721,18.1811046 9.10290962,18.4045085 C9.26522204,18.6279124 9.21569762,18.9405972 8.99229375,19.1029096 Z M70.5,21 C69.6715729,21 69,20.3284271 69,19.5 C69,18.6715729 69.6715729,18 70.5,18 C71.3284271,18 72,18.6715729 72,19.5 C72,20.3284271 71.3284271,21 70.5,21 Z M96.9007994,31.5 C96.6246571,31.5 96.4007994,31.2761424 96.4007994,31 C96.4007994,30.7238576 96.6246571,30.5 96.9007994,30.5 C97.1769418,30.5 97.4007994,30.7238576 97.4007994,31 C97.4007994,31.2761424 97.1769418,31.5 96.9007994,31.5 Z M176.900799,21.5 C176.624657,21.5 176.400799,21.2761424 176.400799,21 C176.400799,20.7238576 176.624657,20.5 176.900799,20.5 C177.176942,20.5 177.400799,20.7238576 177.400799,21 C177.400799,21.2761424 177.176942,21.5 176.900799,21.5 Z M121.377681,39.8087289 C120.707469,40.2956661 119.769415,40.1470929 119.282477,39.4768812 C118.79554,38.8066696 118.944113,37.8686151 119.614325,37.3816779 C120.284537,36.8947406 121.222591,37.0433139 121.709528,37.7135255 C122.196466,38.3837371 122.047892,39.3217916 121.377681,39.8087289 Z M79.9007994,41.5 C79.6246571,41.5 79.4007994,41.2761424 79.4007994,41 C79.4007994,40.7238576 79.6246571,40.5 79.9007994,40.5 C80.1769418,40.5 80.4007994,40.7238576 80.4007994,41 C80.4007994,41.2761424 80.1769418,41.5 79.9007994,41.5 Z M107.377681,41.8087289 C106.707469,42.2956661 105.769415,42.1470929 105.282477,41.4768812 C104.79554,40.8066696 104.944113,39.8686151 105.614325,39.3816779 C106.284537,38.8947406 107.222591,39.0433139 107.709528,39.7135255 C108.196466,40.3837371 108.047892,41.3217916 107.377681,41.8087289 Z M111.377681,66.8087289 C110.707469,67.2956661 109.769415,67.1470929 109.282477,66.4768812 C108.79554,65.8066696 108.944113,64.8686151 109.614325,64.3816779 C110.284537,63.8947406 111.222591,64.0433139 111.709528,64.7135255 C112.196466,65.3837371 112.047892,66.3217916 111.377681,66.8087289 Z M83.3776807,62.8087289 C82.7074691,63.2956661 81.7694146,63.1470929 81.2824773,62.4768812 C80.7955401,61.8066696 80.9441133,60.8686151 81.6143249,60.3816779 C82.2845366,59.8947406 83.2225911,60.0433139 83.7095283,60.7135255 C84.1964655,61.3837371 84.0478923,62.3217916 83.3776807,62.8087289 Z M117.377681,17.8087289 C116.707469,18.2956661 115.769415,18.1470929 115.282477,17.4768812 C114.79554,16.8066696 114.944113,15.8686151 115.614325,15.3816779 C116.284537,14.8947406 117.222591,15.0433139 117.709528,15.7135255 C118.196466,16.3837371 118.047892,17.3217916 117.377681,17.8087289 Z M139.377681,24.8087289 C138.707469,25.2956661 137.769415,25.1470929 137.282477,24.4768812 C136.79554,23.8066696 136.944113,22.8686151 137.614325,22.3816779 C138.284537,21.8947406 139.222591,22.0433139 139.709528,22.7135255 C140.196466,23.3837371 140.047892,24.3217916 139.377681,24.8087289 Z M65.3930932,27.6029096 C65.1696893,27.765222 64.8570045,27.7156976 64.6946921,27.4922937 C64.5323796,27.2688899 64.5819041,26.956205 64.8053079,26.7938926 C65.0287118,26.6315802 65.3413966,26.6811046 65.5037091,26.9045085 C65.6660215,27.1279124 65.6164971,27.4405972 65.3930932,27.6029096 Z M157.5,5.40479663 C156.671573,5.40479663 156,4.73322375 156,3.90479663 C156,3.07636951 156.671573,2.40479663 157.5,2.40479663 C158.328427,2.40479663 159,3.07636951 159,3.90479663 C159,4.73322375 158.328427,5.40479663 157.5,5.40479663 Z M183.5,16.4047966 C183.223858,16.4047966 183,16.180939 183,15.9047966 C183,15.6286543 183.223858,15.4047966 183.5,15.4047966 C183.776142,15.4047966 184,15.6286543 184,15.9047966 C184,16.180939 183.776142,16.4047966 183.5,16.4047966 Z M263.5,6.40479663 C263.223858,6.40479663 263,6.180939 263,5.90479663 C263,5.62865426 263.223858,5.40479663 263.5,5.40479663 C263.776142,5.40479663 264,5.62865426 264,5.90479663 C264,6.180939 263.776142,6.40479663 263.5,6.40479663 Z M207.976881,24.7135255 C207.30667,25.2004627 206.368615,25.0518895 205.881678,24.3816779 C205.394741,23.7114663 205.543314,22.7734118 206.213525,22.2864745 C206.883737,21.7995373 207.821792,21.9481105 208.308729,22.6183221 C208.795666,23.2885337 208.647093,24.2265882 207.976881,24.7135255 Z M166.5,26.4047966 C166.223858,26.4047966 166,26.180939 166,25.9047966 C166,25.6286543 166.223858,25.4047966 166.5,25.4047966 C166.776142,25.4047966 167,25.6286543 167,25.9047966 C167,26.180939 166.776142,26.4047966 166.5,26.4047966 Z M193.976881,26.7135255 C193.30667,27.2004627 192.368615,27.0518895 191.881678,26.3816779 C191.394741,25.7114663 191.543314,24.7734118 192.213525,24.2864745 C192.883737,23.7995373 193.821792,23.9481105 194.308729,24.6183221 C194.795666,25.2885337 194.647093,26.2265882 193.976881,26.7135255 Z M197.976881,51.7135255 C197.30667,52.2004627 196.368615,52.0518895 195.881678,51.3816779 C195.394741,50.7114663 195.543314,49.7734118 196.213525,49.2864745 C196.883737,48.7995373 197.821792,48.9481105 198.308729,49.6183221 C198.795666,50.2885337 198.647093,51.2265882 197.976881,51.7135255 Z M169.976881,47.7135255 C169.30667,48.2004627 168.368615,48.0518895 167.881678,47.3816779 C167.394741,46.7114663 167.543314,45.7734118 168.213525,45.2864745 C168.883737,44.7995373 169.821792,44.9481105 170.308729,45.6183221 C170.795666,46.2885337 170.647093,47.2265882 169.976881,47.7135255 Z M203.976881,2.71352549 C203.30667,3.20046274 202.368615,3.0518895 201.881678,2.38167788 C201.394741,1.71146626 201.543314,0.773411755 202.213525,0.286474508 C202.883737,-0.200462738 203.821792,-0.0518895009 204.308729,0.618322122 C204.795666,1.28853374 204.647093,2.22658825 203.976881,2.71352549 Z M225.976881,9.71352549 C225.30667,10.2004627 224.368615,10.0518895 223.881678,9.38167788 C223.394741,8.71146626 223.543314,7.77341175 224.213525,7.28647451 C224.883737,6.79953726 225.821792,6.9481105 226.308729,7.61832212 C226.795666,8.28853374 226.647093,9.22658825 225.976881,9.71352549 Z M151.992294,12.5077063 C151.76889,12.6700187 151.456205,12.6204943 151.293893,12.3970904 C151.13158,12.1736865 151.181105,11.8610017 151.404508,11.6986893 C151.627912,11.5363768 151.940597,11.5859013 152.10291,11.8093051 C152.265222,12.032709 152.215698,12.3453938 151.992294,12.5077063 Z M213.5,14.4047966 C212.671573,14.4047966 212,13.7332238 212,12.9047966 C212,12.0763695 212.671573,11.4047966 213.5,11.4047966 C214.328427,11.4047966 215,12.0763695 215,12.9047966 C215,13.7332238 214.328427,14.4047966 213.5,14.4047966 Z M239.5,25.4047966 C239.223858,25.4047966 239,25.180939 239,24.9047966 C239,24.6286543 239.223858,24.4047966 239.5,24.4047966 C239.776142,24.4047966 240,24.6286543 240,24.9047966 C240,25.180939 239.776142,25.4047966 239.5,25.4047966 Z M319.5,15.4047966 C319.223858,15.4047966 319,15.180939 319,14.9047966 C319,14.6286543 319.223858,14.4047966 319.5,14.4047966 C319.776142,14.4047966 320,14.6286543 320,14.9047966 C320,15.180939 319.776142,15.4047966 319.5,15.4047966 Z M263.976881,33.7135255 C263.30667,34.2004627 262.368615,34.0518895 261.881678,33.3816779 C261.394741,32.7114663 261.543314,31.7734118 262.213525,31.2864745 C262.883737,30.7995373 263.821792,30.9481105 264.308729,31.6183221 C264.795666,32.2885337 264.647093,33.2265882 263.976881,33.7135255 Z M222.5,35.4047966 C222.223858,35.4047966 222,35.180939 222,34.9047966 C222,34.6286543 222.223858,34.4047966 222.5,34.4047966 C222.776142,34.4047966 223,34.6286543 223,34.9047966 C223,35.180939 222.776142,35.4047966 222.5,35.4047966 Z M249.976881,35.7135255 C249.30667,36.2004627 248.368615,36.0518895 247.881678,35.3816779 C247.394741,34.7114663 247.543314,33.7734118 248.213525,33.2864745 C248.883737,32.7995373 249.821792,32.9481105 250.308729,33.6183221 C250.795666,34.2885337 250.647093,35.2265882 249.976881,35.7135255 Z M253.976881,60.7135255 C253.30667,61.2004627 252.368615,61.0518895 251.881678,60.3816779 C251.394741,59.7114663 251.543314,58.7734118 252.213525,58.2864745 C252.883737,57.7995373 253.821792,57.9481105 254.308729,58.6183221 C254.795666,59.2885337 254.647093,60.2265882 253.976881,60.7135255 Z M225.976881,56.7135255 C225.30667,57.2004627 224.368615,57.0518895 223.881678,56.3816779 C223.394741,55.7114663 223.543314,54.7734118 224.213525,54.2864745 C224.883737,53.7995373 225.821792,53.9481105 226.308729,54.6183221 C226.795666,55.2885337 226.647093,56.2265882 225.976881,56.7135255 Z M259.976881,11.7135255 C259.30667,12.2004627 258.368615,12.0518895 257.881678,11.3816779 C257.394741,10.7114663 257.543314,9.77341175 258.213525,9.28647451 C258.883737,8.79953726 259.821792,8.9481105 260.308729,9.61832212 C260.795666,10.2885337 260.647093,11.2265882 259.976881,11.7135255 Z M281.976881,18.7135255 C281.30667,19.2004627 280.368615,19.0518895 279.881678,18.3816779 C279.394741,17.7114663 279.543314,16.7734118 280.213525,16.2864745 C280.883737,15.7995373 281.821792,15.9481105 282.308729,16.6183221 C282.795666,17.2885337 282.647093,18.2265882 281.976881,18.7135255 Z M207.992294,21.5077063 C207.76889,21.6700187 207.456205,21.6204943 207.293893,21.3970904 C207.13158,21.1736865 207.181105,20.8610017 207.404508,20.6986893 C207.627912,20.5363768 207.940597,20.5859013 208.10291,20.8093051 C208.265222,21.032709 208.215698,21.3453938 207.992294,21.5077063 Z M337.976881,67.3087289 C337.30667,67.7956661 336.368615,67.6470929 335.881678,66.9768812 C335.394741,66.3066696 335.543314,65.3686151 336.213525,64.8816779 C336.883737,64.3947406 337.821792,64.5433139 338.308729,65.2135255 C338.795666,65.8837371 338.647093,66.8217916 337.976881,67.3087289 Z M240.904797,54.9047966 C240.628654,54.9047966 240.404797,54.680939 240.404797,54.4047966 C240.404797,54.1286543 240.628654,53.9047966 240.904797,53.9047966 C241.180939,53.9047966 241.404797,54.1286543 241.404797,54.4047966 C241.404797,54.680939 241.180939,54.9047966 240.904797,54.9047966 Z M185.381678,73.2135255 C184.711466,73.7004627 183.773412,73.5518895 183.286475,72.8816779 C182.799537,72.2114663 182.94811,71.2734118 183.618322,70.7864745 C184.288534,70.2995373 185.226588,70.4481105 185.713525,71.1183221 C186.200463,71.7885337 186.05189,72.7265882 185.381678,73.2135255 Z M171.381678,75.2135255 C170.711466,75.7004627 169.773412,75.5518895 169.286475,74.8816779 C168.799537,74.2114663 168.94811,73.2734118 169.618322,72.7864745 C170.288534,72.2995373 171.226588,72.4481105 171.713525,73.1183221 C172.200463,73.7885337 172.05189,74.7265882 171.381678,75.2135255 Z M175.381678,100.213525 C174.711466,100.700463 173.773412,100.55189 173.286475,99.8816779 C172.799537,99.2114663 172.94811,98.2734118 173.618322,97.7864745 C174.288534,97.2995373 175.226588,97.4481105 175.713525,98.1183221 C176.200463,98.7885337 176.05189,99.7265882 175.381678,100.213525 Z M181.381678,51.2135255 C180.711466,51.7004627 179.773412,51.5518895 179.286475,50.8816779 C178.799537,50.2114663 178.94811,49.2734118 179.618322,48.7864745 C180.288534,48.2995373 181.226588,48.4481105 181.713525,49.1183221 C182.200463,49.7885337 182.05189,50.7265882 181.381678,51.2135255 Z M203.381678,58.2135255 C202.711466,58.7004627 201.773412,58.5518895 201.286475,57.8816779 C200.799537,57.2114663 200.94811,56.2734118 201.618322,55.7864745 C202.288534,55.2995373 203.226588,55.4481105 203.713525,56.1183221 C204.200463,56.7885337 204.05189,57.7265882 203.381678,58.2135255 Z M190.904797,62.9047966 C190.07637,62.9047966 189.404797,62.2332238 189.404797,61.4047966 C189.404797,60.5763695 190.07637,59.9047966 190.904797,59.9047966 C191.733224,59.9047966 192.404797,60.5763695 192.404797,61.4047966 C192.404797,62.2332238 191.733224,62.9047966 190.904797,62.9047966 Z M216.904797,72.9047966 C216.628654,72.9047966 216.404797,72.680939 216.404797,72.4047966 C216.404797,72.1286543 216.628654,71.9047966 216.904797,71.9047966 C217.180939,71.9047966 217.404797,72.1286543 217.404797,72.4047966 C217.404797,72.680939 217.180939,72.9047966 216.904797,72.9047966 Z M296.904797,62.9047966 C296.628654,62.9047966 296.404797,62.680939 296.404797,62.4047966 C296.404797,62.1286543 296.628654,61.9047966 296.904797,61.9047966 C297.180939,61.9047966 297.404797,62.1286543 297.404797,62.4047966 C297.404797,62.680939 297.180939,62.9047966 296.904797,62.9047966 Z M241.381678,81.2135255 C240.711466,81.7004627 239.773412,81.5518895 239.286475,80.8816779 C238.799537,80.2114663 238.94811,79.2734118 239.618322,78.7864745 C240.288534,78.2995373 241.226588,78.4481105 241.713525,79.1183221 C242.200463,79.7885337 242.05189,80.7265882 241.381678,81.2135255 Z M199.904797,82.9047966 C199.628654,82.9047966 199.404797,82.680939 199.404797,82.4047966 C199.404797,82.1286543 199.628654,81.9047966 199.904797,81.9047966 C200.180939,81.9047966 200.404797,82.1286543 200.404797,82.4047966 C200.404797,82.680939 200.180939,82.9047966 199.904797,82.9047966 Z M227.381678,83.2135255 C226.711466,83.7004627 225.773412,83.5518895 225.286475,82.8816779 C224.799537,82.2114663 224.94811,81.2734118 225.618322,80.7864745 C226.288534,80.2995373 227.226588,80.4481105 227.713525,81.1183221 C228.200463,81.7885337 228.05189,82.7265882 227.381678,83.2135255 Z M231.381678,108.213525 C230.711466,108.700463 229.773412,108.55189 229.286475,107.881678 C228.799537,107.211466 228.94811,106.273412 229.618322,105.786475 C230.288534,105.299537 231.226588,105.44811 231.713525,106.118322 C232.200463,106.788534 232.05189,107.726588 231.381678,108.213525 Z M203.381678,104.213525 C202.711466,104.700463 201.773412,104.55189 201.286475,103.881678 C200.799537,103.211466 200.94811,102.273412 201.618322,101.786475 C202.288534,101.299537 203.226588,101.44811 203.713525,102.118322 C204.200463,102.788534 204.05189,103.726588 203.381678,104.213525 Z M237.381678,59.2135255 C236.711466,59.7004627 235.773412,59.5518895 235.286475,58.8816779 C234.799537,58.2114663 234.94811,57.2734118 235.618322,56.7864745 C236.288534,56.2995373 237.226588,56.4481105 237.713525,57.1183221 C238.200463,57.7885337 238.05189,58.7265882 237.381678,59.2135255 Z M259.381678,66.2135255 C258.711466,66.7004627 257.773412,66.5518895 257.286475,65.8816779 C256.799537,65.2114663 256.94811,64.2734118 257.618322,63.7864745 C258.288534,63.2995373 259.226588,63.4481105 259.713525,64.1183221 C260.200463,64.7885337 260.05189,65.7265882 259.381678,66.2135255 Z M185.39709,69.0077063 C185.173687,69.1700187 184.861002,69.1204943 184.698689,68.8970904 C184.536377,68.6736865 184.585901,68.3610017 184.809305,68.1986893 C185.032709,68.0363768 185.345394,68.0859013 185.507706,68.3093051 C185.670019,68.532709 185.620494,68.8453938 185.39709,69.0077063 Z M277.904797,46.9047966 C277.07637,46.9047966 276.404797,46.2332238 276.404797,45.4047966 C276.404797,44.5763695 277.07637,43.9047966 277.904797,43.9047966 C278.733224,43.9047966 279.404797,44.5763695 279.404797,45.4047966 C279.404797,46.2332238 278.733224,46.9047966 277.904797,46.9047966 Z M303.904797,57.9047966 C303.628654,57.9047966 303.404797,57.680939 303.404797,57.4047966 C303.404797,57.1286543 303.628654,56.9047966 303.904797,56.9047966 C304.180939,56.9047966 304.404797,57.1286543 304.404797,57.4047966 C304.404797,57.680939 304.180939,57.9047966 303.904797,57.9047966 Z M383.904797,47.9047966 C383.628654,47.9047966 383.404797,47.680939 383.404797,47.4047966 C383.404797,47.1286543 383.628654,46.9047966 383.904797,46.9047966 C384.180939,46.9047966 384.404797,47.1286543 384.404797,47.4047966 C384.404797,47.680939 384.180939,47.9047966 383.904797,47.9047966 Z M328.381678,66.2135255 C327.711466,66.7004627 326.773412,66.5518895 326.286475,65.8816779 C325.799537,65.2114663 325.94811,64.2734118 326.618322,63.7864745 C327.288534,63.2995373 328.226588,63.4481105 328.713525,64.1183221 C329.200463,64.7885337 329.05189,65.7265882 328.381678,66.2135255 Z M286.904797,67.9047966 C286.628654,67.9047966 286.404797,67.680939 286.404797,67.4047966 C286.404797,67.1286543 286.628654,66.9047966 286.904797,66.9047966 C287.180939,66.9047966 287.404797,67.1286543 287.404797,67.4047966 C287.404797,67.680939 287.180939,67.9047966 286.904797,67.9047966 Z M314.381678,68.2135255 C313.711466,68.7004627 312.773412,68.5518895 312.286475,67.8816779 C311.799537,67.2114663 311.94811,66.2734118 312.618322,65.7864745 C313.288534,65.2995373 314.226588,65.4481105 314.713525,66.1183221 C315.200463,66.7885337 315.05189,67.7265882 314.381678,68.2135255 Z M318.381678,93.2135255 C317.711466,93.7004627 316.773412,93.5518895 316.286475,92.8816779 C315.799537,92.2114663 315.94811,91.2734118 316.618322,90.7864745 C317.288534,90.2995373 318.226588,90.4481105 318.713525,91.1183221 C319.200463,91.7885337 319.05189,92.7265882 318.381678,93.2135255 Z M290.381678,89.2135255 C289.711466,89.7004627 288.773412,89.5518895 288.286475,88.8816779 C287.799537,88.2114663 287.94811,87.2734118 288.618322,86.7864745 C289.288534,86.2995373 290.226588,86.4481105 290.713525,87.1183221 C291.200463,87.7885337 291.05189,88.7265882 290.381678,89.2135255 Z M324.381678,44.2135255 C323.711466,44.7004627 322.773412,44.5518895 322.286475,43.8816779 C321.799537,43.2114663 321.94811,42.2734118 322.618322,41.7864745 C323.288534,41.2995373 324.226588,41.4481105 324.713525,42.1183221 C325.200463,42.7885337 325.05189,43.7265882 324.381678,44.2135255 Z M346.381678,51.2135255 C345.711466,51.7004627 344.773412,51.5518895 344.286475,50.8816779 C343.799537,50.2114663 343.94811,49.2734118 344.618322,48.7864745 C345.288534,48.2995373 346.226588,48.4481105 346.713525,49.1183221 C347.200463,49.7885337 347.05189,50.7265882 346.381678,51.2135255 Z M272.39709,54.0077063 C272.173687,54.1700187 271.861002,54.1204943 271.698689,53.8970904 C271.536377,53.6736865 271.585901,53.3610017 271.809305,53.1986893 C272.032709,53.0363768 272.345394,53.0859013 272.507706,53.3093051 C272.670019,53.532709 272.620494,53.8453938 272.39709,54.0077063 Z M333.904797,55.9047966 C333.07637,55.9047966 332.404797,55.2332238 332.404797,54.4047966 C332.404797,53.5763695 333.07637,52.9047966 333.904797,52.9047966 C334.733224,52.9047966 335.404797,53.5763695 335.404797,54.4047966 C335.404797,55.2332238 334.733224,55.9047966 333.904797,55.9047966 Z M359.904797,66.9047966 C359.628654,66.9047966 359.404797,66.680939 359.404797,66.4047966 C359.404797,66.1286543 359.628654,65.9047966 359.904797,65.9047966 C360.180939,65.9047966 360.404797,66.1286543 360.404797,66.4047966 C360.404797,66.680939 360.180939,66.9047966 359.904797,66.9047966 Z M384.381678,75.2135255 C383.711466,75.7004627 382.773412,75.5518895 382.286475,74.8816779 C381.799537,74.2114663 381.94811,73.2734118 382.618322,72.7864745 C383.288534,72.2995373 384.226588,72.4481105 384.713525,73.1183221 C385.200463,73.7885337 385.05189,74.7265882 384.381678,75.2135255 Z M342.904797,76.9047966 C342.628654,76.9047966 342.404797,76.680939 342.404797,76.4047966 C342.404797,76.1286543 342.628654,75.9047966 342.904797,75.9047966 C343.180939,75.9047966 343.404797,76.1286543 343.404797,76.4047966 C343.404797,76.680939 343.180939,76.9047966 342.904797,76.9047966 Z M370.381678,77.2135255 C369.711466,77.7004627 368.773412,77.5518895 368.286475,76.8816779 C367.799537,76.2114663 367.94811,75.2734118 368.618322,74.7864745 C369.288534,74.2995373 370.226588,74.4481105 370.713525,75.1183221 C371.200463,75.7885337 371.05189,76.7265882 370.381678,77.2135255 Z M374.381678,102.213525 C373.711466,102.700463 372.773412,102.55189 372.286475,101.881678 C371.799537,101.211466 371.94811,100.273412 372.618322,99.7864745 C373.288534,99.2995373 374.226588,99.4481105 374.713525,100.118322 C375.200463,100.788534 375.05189,101.726588 374.381678,102.213525 Z M346.381678,98.2135255 C345.711466,98.7004627 344.773412,98.5518895 344.286475,97.8816779 C343.799537,97.2114663 343.94811,96.2734118 344.618322,95.7864745 C345.288534,95.2995373 346.226588,95.4481105 346.713525,96.1183221 C347.200463,96.7885337 347.05189,97.7265882 346.381678,98.2135255 Z M380.381678,53.2135255 C379.711466,53.7004627 378.773412,53.5518895 378.286475,52.8816779 C377.799537,52.2114663 377.94811,51.2734118 378.618322,50.7864745 C379.288534,50.2995373 380.226588,50.4481105 380.713525,51.1183221 C381.200463,51.7885337 381.05189,52.7265882 380.381678,53.2135255 Z M402.381678,60.2135255 C401.711466,60.7004627 400.773412,60.5518895 400.286475,59.8816779 C399.799537,59.2114663 399.94811,58.2734118 400.618322,57.7864745 C401.288534,57.2995373 402.226588,57.4481105 402.713525,58.1183221 C403.200463,58.7885337 403.05189,59.7265882 402.381678,60.2135255 Z M328.39709,63.0077063 C328.173687,63.1700187 327.861002,63.1204943 327.698689,62.8970904 C327.536377,62.6736865 327.585901,62.3610017 327.809305,62.1986893 C328.032709,62.0363768 328.345394,62.0859013 328.507706,62.3093051 C328.670019,62.532709 328.620494,62.8453938 328.39709,63.0077063 Z M33.3095933,65.4047966 C33.0334509,65.4047966 32.8095933,65.180939 32.8095933,64.9047966 C32.8095933,64.6286543 33.0334509,64.4047966 33.3095933,64.4047966 C33.5857356,64.4047966 33.8095933,64.6286543 33.8095933,64.9047966 C33.8095933,65.180939 33.5857356,65.4047966 33.3095933,65.4047966 Z M9.30959326,83.4047966 C9.03345089,83.4047966 8.80959326,83.180939 8.80959326,82.9047966 C8.80959326,82.6286543 9.03345089,82.4047966 9.30959326,82.4047966 C9.58573563,82.4047966 9.80959326,82.6286543 9.80959326,82.9047966 C9.80959326,83.180939 9.58573563,83.4047966 9.30959326,83.4047966 Z M89.3095933,73.4047966 C89.0334509,73.4047966 88.8095933,73.180939 88.8095933,72.9047966 C88.8095933,72.6286543 89.0334509,72.4047966 89.3095933,72.4047966 C89.5857356,72.4047966 89.8095933,72.6286543 89.8095933,72.9047966 C89.8095933,73.180939 89.5857356,73.4047966 89.3095933,73.4047966 Z M33.7864745,91.7135255 C33.1162629,92.2004627 32.1782084,92.0518895 31.6912711,91.3816779 C31.2043339,90.7114663 31.3529071,89.7734118 32.0231188,89.2864745 C32.6933304,88.7995373 33.6313849,88.9481105 34.1183221,89.6183221 C34.6052594,90.2885337 34.4566861,91.2265882 33.7864745,91.7135255 Z M19.7864745,93.7135255 C19.1162629,94.2004627 18.1782084,94.0518895 17.6912711,93.3816779 C17.2043339,92.7114663 17.3529071,91.7734118 18.0231188,91.2864745 C18.6933304,90.7995373 19.6313849,90.9481105 20.1183221,91.6183221 C20.6052594,92.2885337 20.4566861,93.2265882 19.7864745,93.7135255 Z M23.7864745,118.713525 C23.1162629,119.200463 22.1782084,119.05189 21.6912711,118.381678 C21.2043339,117.711466 21.3529071,116.773412 22.0231188,116.286475 C22.6933304,115.799537 23.6313849,115.94811 24.1183221,116.618322 C24.6052594,117.288534 24.4566861,118.226588 23.7864745,118.713525 Z M29.7864745,69.7135255 C29.1162629,70.2004627 28.1782084,70.0518895 27.6912711,69.3816779 C27.2043339,68.7114663 27.3529071,67.7734118 28.0231188,67.2864745 C28.6933304,66.7995373 29.6313849,66.9481105 30.1183221,67.6183221 C30.6052594,68.2885337 30.4566861,69.2265882 29.7864745,69.7135255 Z M51.7864745,76.7135255 C51.1162629,77.2004627 50.1782084,77.0518895 49.6912711,76.3816779 C49.2043339,75.7114663 49.3529071,74.7734118 50.0231188,74.2864745 C50.6933304,73.7995373 51.6313849,73.9481105 52.1183221,74.6183221 C52.6052594,75.2885337 52.4566861,76.2265882 51.7864745,76.7135255 Z M70.3095933,57.4047966 C69.4811661,57.4047966 68.8095933,56.7332238 68.8095933,55.9047966 C68.8095933,55.0763695 69.4811661,54.4047966 70.3095933,54.4047966 C71.1380204,54.4047966 71.8095933,55.0763695 71.8095933,55.9047966 C71.8095933,56.7332238 71.1380204,57.4047966 70.3095933,57.4047966 Z M96.3095933,68.4047966 C96.0334509,68.4047966 95.8095933,68.180939 95.8095933,67.9047966 C95.8095933,67.6286543 96.0334509,67.4047966 96.3095933,67.4047966 C96.5857356,67.4047966 96.8095933,67.6286543 96.8095933,67.9047966 C96.8095933,68.180939 96.5857356,68.4047966 96.3095933,68.4047966 Z M176.309593,58.4047966 C176.033451,58.4047966 175.809593,58.180939 175.809593,57.9047966 C175.809593,57.6286543 176.033451,57.4047966 176.309593,57.4047966 C176.585736,57.4047966 176.809593,57.6286543 176.809593,57.9047966 C176.809593,58.180939 176.585736,58.4047966 176.309593,58.4047966 Z M120.786475,76.7135255 C120.116263,77.2004627 119.178208,77.0518895 118.691271,76.3816779 C118.204334,75.7114663 118.352907,74.7734118 119.023119,74.2864745 C119.69333,73.7995373 120.631385,73.9481105 121.118322,74.6183221 C121.605259,75.2885337 121.456686,76.2265882 120.786475,76.7135255 Z M79.3095933,78.4047966 C79.0334509,78.4047966 78.8095933,78.180939 78.8095933,77.9047966 C78.8095933,77.6286543 79.0334509,77.4047966 79.3095933,77.4047966 C79.5857356,77.4047966 79.8095933,77.6286543 79.8095933,77.9047966 C79.8095933,78.180939 79.5857356,78.4047966 79.3095933,78.4047966 Z M106.786475,78.7135255 C106.116263,79.2004627 105.178208,79.0518895 104.691271,78.3816779 C104.204334,77.7114663 104.352907,76.7734118 105.023119,76.2864745 C105.69333,75.7995373 106.631385,75.9481105 107.118322,76.6183221 C107.605259,77.2885337 107.456686,78.2265882 106.786475,78.7135255 Z M110.786475,103.713525 C110.116263,104.200463 109.178208,104.05189 108.691271,103.381678 C108.204334,102.711466 108.352907,101.773412 109.023119,101.286475 C109.69333,100.799537 110.631385,100.94811 111.118322,101.618322 C111.605259,102.288534 111.456686,103.226588 110.786475,103.713525 Z M82.7864745,99.7135255 C82.1162629,100.200463 81.1782084,100.05189 80.6912711,99.3816779 C80.2043339,98.7114663 80.3529071,97.7734118 81.0231188,97.2864745 C81.6933304,96.7995373 82.6313849,96.9481105 83.1183221,97.6183221 C83.6052594,98.2885337 83.4566861,99.2265882 82.7864745,99.7135255 Z M116.786475,54.7135255 C116.116263,55.2004627 115.178208,55.0518895 114.691271,54.3816779 C114.204334,53.7114663 114.352907,52.7734118 115.023119,52.2864745 C115.69333,51.7995373 116.631385,51.9481105 117.118322,52.6183221 C117.605259,53.2885337 117.456686,54.2265882 116.786475,54.7135255 Z M138.786475,61.7135255 C138.116263,62.2004627 137.178208,62.0518895 136.691271,61.3816779 C136.204334,60.7114663 136.352907,59.7734118 137.023119,59.2864745 C137.69333,58.7995373 138.631385,58.9481105 139.118322,59.6183221 C139.605259,60.2885337 139.456686,61.2265882 138.786475,61.7135255 Z M64.801887,64.5077063 C64.5784831,64.6700187 64.2657983,64.6204943 64.1034859,64.3970904 C63.9411735,64.1736865 63.9906979,63.8610017 64.2141018,63.6986893 C64.4375056,63.5363768 64.7501905,63.5859013 64.9125029,63.8093051 C65.0748153,64.032709 65.0252909,64.3453938 64.801887,64.5077063 Z M126.309593,66.4047966 C125.481166,66.4047966 124.809593,65.7332238 124.809593,64.9047966 C124.809593,64.0763695 125.481166,63.4047966 126.309593,63.4047966 C127.13802,63.4047966 127.809593,64.0763695 127.809593,64.9047966 C127.809593,65.7332238 127.13802,66.4047966 126.309593,66.4047966 Z M152.309593,77.4047966 C152.033451,77.4047966 151.809593,77.180939 151.809593,76.9047966 C151.809593,76.6286543 152.033451,76.4047966 152.309593,76.4047966 C152.585736,76.4047966 152.809593,76.6286543 152.809593,76.9047966 C152.809593,77.180939 152.585736,77.4047966 152.309593,77.4047966 Z M232.309593,67.4047966 C232.033451,67.4047966 231.809593,67.180939 231.809593,66.9047966 C231.809593,66.6286543 232.033451,66.4047966 232.309593,66.4047966 C232.585736,66.4047966 232.809593,66.6286543 232.809593,66.9047966 C232.809593,67.180939 232.585736,67.4047966 232.309593,67.4047966 Z M176.786475,85.7135255 C176.116263,86.2004627 175.178208,86.0518895 174.691271,85.3816779 C174.204334,84.7114663 174.352907,83.7734118 175.023119,83.2864745 C175.69333,82.7995373 176.631385,82.9481105 177.118322,83.6183221 C177.605259,84.2885337 177.456686,85.2265882 176.786475,85.7135255 Z M135.309593,87.4047966 C135.033451,87.4047966 134.809593,87.180939 134.809593,86.9047966 C134.809593,86.6286543 135.033451,86.4047966 135.309593,86.4047966 C135.585736,86.4047966 135.809593,86.6286543 135.809593,86.9047966 C135.809593,87.180939 135.585736,87.4047966 135.309593,87.4047966 Z M162.786475,87.7135255 C162.116263,88.2004627 161.178208,88.0518895 160.691271,87.3816779 C160.204334,86.7114663 160.352907,85.7734118 161.023119,85.2864745 C161.69333,84.7995373 162.631385,84.9481105 163.118322,85.6183221 C163.605259,86.2885337 163.456686,87.2265882 162.786475,87.7135255 Z M166.786475,112.713525 C166.116263,113.200463 165.178208,113.05189 164.691271,112.381678 C164.204334,111.711466 164.352907,110.773412 165.023119,110.286475 C165.69333,109.799537 166.631385,109.94811 167.118322,110.618322 C167.605259,111.288534 167.456686,112.226588 166.786475,112.713525 Z M138.786475,108.713525 C138.116263,109.200463 137.178208,109.05189 136.691271,108.381678 C136.204334,107.711466 136.352907,106.773412 137.023119,106.286475 C137.69333,105.799537 138.631385,105.94811 139.118322,106.618322 C139.605259,107.288534 139.456686,108.226588 138.786475,108.713525 Z M172.786475,63.7135255 C172.116263,64.2004627 171.178208,64.0518895 170.691271,63.3816779 C170.204334,62.7114663 170.352907,61.7734118 171.023119,61.2864745 C171.69333,60.7995373 172.631385,60.9481105 173.118322,61.6183221 C173.605259,62.2885337 173.456686,63.2265882 172.786475,63.7135255 Z M194.786475,70.7135255 C194.116263,71.2004627 193.178208,71.0518895 192.691271,70.3816779 C192.204334,69.7114663 192.352907,68.7734118 193.023119,68.2864745 C193.69333,67.7995373 194.631385,67.9481105 195.118322,68.6183221 C195.605259,69.2885337 195.456686,70.2265882 194.786475,70.7135255 Z M120.801887,73.5077063 C120.578483,73.6700187 120.265798,73.6204943 120.103486,73.3970904 C119.941173,73.1736865 119.990698,72.8610017 120.214102,72.6986893 C120.437506,72.5363768 120.75019,72.5859013 120.912503,72.8093051 C121.074815,73.032709 121.025291,73.3453938 120.801887,73.5077063 Z M250.786475,119.713525 C250.116263,120.200463 249.178208,120.05189 248.691271,119.381678 C248.204334,118.711466 248.352907,117.773412 249.023119,117.286475 C249.69333,116.799537 250.631385,116.94811 251.118322,117.618322 C251.605259,118.288534 251.456686,119.226588 250.786475,119.713525 Z M153.309593,107.404797 C153.033451,107.404797 152.809593,107.180939 152.809593,106.904797 C152.809593,106.628654 153.033451,106.404797 153.309593,106.404797 C153.585736,106.404797 153.809593,106.628654 153.809593,106.904797 C153.809593,107.180939 153.585736,107.404797 153.309593,107.404797 Z M97.7864745,125.713525 C97.1162629,126.200463 96.1782084,126.05189 95.6912711,125.381678 C95.2043339,124.711466 95.3529071,123.773412 96.0231188,123.286475 C96.6933304,122.799537 97.6313849,122.94811 98.1183221,123.618322 C98.6052594,124.288534 98.4566861,125.226588 97.7864745,125.713525 Z M83.7864745,127.713525 C83.1162629,128.200463 82.1782084,128.05189 81.6912711,127.381678 C81.2043339,126.711466 81.3529071,125.773412 82.0231188,125.286475 C82.6933304,124.799537 83.6313849,124.94811 84.1183221,125.618322 C84.6052594,126.288534 84.4566861,127.226588 83.7864745,127.713525 Z M87.7864745,152.713525 C87.1162629,153.200463 86.1782084,153.05189 85.6912711,152.381678 C85.2043339,151.711466 85.3529071,150.773412 86.0231188,150.286475 C86.6933304,149.799537 87.6313849,149.94811 88.1183221,150.618322 C88.6052594,151.288534 88.4566861,152.226588 87.7864745,152.713525 Z M93.7864745,103.713525 C93.1162629,104.200463 92.1782084,104.05189 91.6912711,103.381678 C91.2043339,102.711466 91.3529071,101.773412 92.0231188,101.286475 C92.6933304,100.799537 93.6313849,100.94811 94.1183221,101.618322 C94.6052594,102.288534 94.4566861,103.226588 93.7864745,103.713525 Z M115.786475,110.713525 C115.116263,111.200463 114.178208,111.05189 113.691271,110.381678 C113.204334,109.711466 113.352907,108.773412 114.023119,108.286475 C114.69333,107.799537 115.631385,107.94811 116.118322,108.618322 C116.605259,109.288534 116.456686,110.226588 115.786475,110.713525 Z M103.309593,115.404797 C102.481166,115.404797 101.809593,114.733224 101.809593,113.904797 C101.809593,113.07637 102.481166,112.404797 103.309593,112.404797 C104.13802,112.404797 104.809593,113.07637 104.809593,113.904797 C104.809593,114.733224 104.13802,115.404797 103.309593,115.404797 Z M129.309593,125.404797 C129.033451,125.404797 128.809593,125.180939 128.809593,124.904797 C128.809593,124.628654 129.033451,124.404797 129.309593,124.404797 C129.585736,124.404797 129.809593,124.628654 129.809593,124.904797 C129.809593,125.180939 129.585736,125.404797 129.309593,125.404797 Z M209.309593,115.404797 C209.033451,115.404797 208.809593,115.180939 208.809593,114.904797 C208.809593,114.628654 209.033451,114.404797 209.309593,114.404797 C209.585736,114.404797 209.809593,114.628654 209.809593,114.904797 C209.809593,115.180939 209.585736,115.404797 209.309593,115.404797 Z M153.786475,133.713525 C153.116263,134.200463 152.178208,134.05189 151.691271,133.381678 C151.204334,132.711466 151.352907,131.773412 152.023119,131.286475 C152.69333,130.799537 153.631385,130.94811 154.118322,131.618322 C154.605259,132.288534 154.456686,133.226588 153.786475,133.713525 Z M112.309593,135.404797 C112.033451,135.404797 111.809593,135.180939 111.809593,134.904797 C111.809593,134.628654 112.033451,134.404797 112.309593,134.404797 C112.585736,134.404797 112.809593,134.628654 112.809593,134.904797 C112.809593,135.180939 112.585736,135.404797 112.309593,135.404797 Z M139.786475,135.713525 C139.116263,136.200463 138.178208,136.05189 137.691271,135.381678 C137.204334,134.711466 137.352907,133.773412 138.023119,133.286475 C138.69333,132.799537 139.631385,132.94811 140.118322,133.618322 C140.605259,134.288534 140.456686,135.226588 139.786475,135.713525 Z M143.786475,160.713525 C143.116263,161.200463 142.178208,161.05189 141.691271,160.381678 C141.204334,159.711466 141.352907,158.773412 142.023119,158.286475 C142.69333,157.799537 143.631385,157.94811 144.118322,158.618322 C144.605259,159.288534 144.456686,160.226588 143.786475,160.713525 Z M115.786475,156.713525 C115.116263,157.200463 114.178208,157.05189 113.691271,156.381678 C113.204334,155.711466 113.352907,154.773412 114.023119,154.286475 C114.69333,153.799537 115.631385,153.94811 116.118322,154.618322 C116.605259,155.288534 116.456686,156.226588 115.786475,156.713525 Z M149.786475,111.713525 C149.116263,112.200463 148.178208,112.05189 147.691271,111.381678 C147.204334,110.711466 147.352907,109.773412 148.023119,109.286475 C148.69333,108.799537 149.631385,108.94811 150.118322,109.618322 C150.605259,110.288534 150.456686,111.226588 149.786475,111.713525 Z M171.786475,118.713525 C171.116263,119.200463 170.178208,119.05189 169.691271,118.381678 C169.204334,117.711466 169.352907,116.773412 170.023119,116.286475 C170.69333,115.799537 171.631385,115.94811 172.118322,116.618322 C172.605259,117.288534 172.456686,118.226588 171.786475,118.713525 Z M97.801887,121.507706 C97.5784831,121.670019 97.2657983,121.620494 97.1034859,121.39709 C96.9411735,121.173687 96.9906979,120.861002 97.2141018,120.698689 C97.4375056,120.536377 97.7501905,120.585901 97.9125029,120.809305 C98.0748153,121.032709 98.0252909,121.345394 97.801887,121.507706 Z M190.309593,99.4047966 C189.481166,99.4047966 188.809593,98.7332238 188.809593,97.9047966 C188.809593,97.0763695 189.481166,96.4047966 190.309593,96.4047966 C191.13802,96.4047966 191.809593,97.0763695 191.809593,97.9047966 C191.809593,98.7332238 191.13802,99.4047966 190.309593,99.4047966 Z M216.309593,110.404797 C216.033451,110.404797 215.809593,110.180939 215.809593,109.904797 C215.809593,109.628654 216.033451,109.404797 216.309593,109.404797 C216.585736,109.404797 216.809593,109.628654 216.809593,109.904797 C216.809593,110.180939 216.585736,110.404797 216.309593,110.404797 Z M296.309593,100.404797 C296.033451,100.404797 295.809593,100.180939 295.809593,99.9047966 C295.809593,99.6286543 296.033451,99.4047966 296.309593,99.4047966 C296.585736,99.4047966 296.809593,99.6286543 296.809593,99.9047966 C296.809593,100.180939 296.585736,100.404797 296.309593,100.404797 Z M240.786475,118.713525 C240.116263,119.200463 239.178208,119.05189 238.691271,118.381678 C238.204334,117.711466 238.352907,116.773412 239.023119,116.286475 C239.69333,115.799537 240.631385,115.94811 241.118322,116.618322 C241.605259,117.288534 241.456686,118.226588 240.786475,118.713525 Z M199.309593,120.404797 C199.033451,120.404797 198.809593,120.180939 198.809593,119.904797 C198.809593,119.628654 199.033451,119.404797 199.309593,119.404797 C199.585736,119.404797 199.809593,119.628654 199.809593,119.904797 C199.809593,120.180939 199.585736,120.404797 199.309593,120.404797 Z M226.786475,120.713525 C226.116263,121.200463 225.178208,121.05189 224.691271,120.381678 C224.204334,119.711466 224.352907,118.773412 225.023119,118.286475 C225.69333,117.799537 226.631385,117.94811 227.118322,118.618322 C227.605259,119.288534 227.456686,120.226588 226.786475,120.713525 Z M230.786475,145.713525 C230.116263,146.200463 229.178208,146.05189 228.691271,145.381678 C228.204334,144.711466 228.352907,143.773412 229.023119,143.286475 C229.69333,142.799537 230.631385,142.94811 231.118322,143.618322 C231.605259,144.288534 231.456686,145.226588 230.786475,145.713525 Z M202.786475,141.713525 C202.116263,142.200463 201.178208,142.05189 200.691271,141.381678 C200.204334,140.711466 200.352907,139.773412 201.023119,139.286475 C201.69333,138.799537 202.631385,138.94811 203.118322,139.618322 C203.605259,140.288534 203.456686,141.226588 202.786475,141.713525 Z M236.786475,96.7135255 C236.116263,97.2004627 235.178208,97.0518895 234.691271,96.3816779 C234.204334,95.7114663 234.352907,94.7734118 235.023119,94.2864745 C235.69333,93.7995373 236.631385,93.9481105 237.118322,94.6183221 C237.605259,95.2885337 237.456686,96.2265882 236.786475,96.7135255 Z M258.786475,103.713525 C258.116263,104.200463 257.178208,104.05189 256.691271,103.381678 C256.204334,102.711466 256.352907,101.773412 257.023119,101.286475 C257.69333,100.799537 258.631385,100.94811 259.118322,101.618322 C259.605259,102.288534 259.456686,103.226588 258.786475,103.713525 Z M184.801887,106.507706 C184.578483,106.670019 184.265798,106.620494 184.103486,106.39709 C183.941173,106.173687 183.990698,105.861002 184.214102,105.698689 C184.437506,105.536377 184.75019,105.585901 184.912503,105.809305 C185.074815,106.032709 185.025291,106.345394 184.801887,106.507706 Z M246.309593,108.404797 C245.481166,108.404797 244.809593,107.733224 244.809593,106.904797 C244.809593,106.07637 245.481166,105.404797 246.309593,105.404797 C247.13802,105.404797 247.809593,106.07637 247.809593,106.904797 C247.809593,107.733224 247.13802,108.404797 246.309593,108.404797 Z M272.309593,119.404797 C272.033451,119.404797 271.809593,119.180939 271.809593,118.904797 C271.809593,118.628654 272.033451,118.404797 272.309593,118.404797 C272.585736,118.404797 272.809593,118.628654 272.809593,118.904797 C272.809593,119.180939 272.585736,119.404797 272.309593,119.404797 Z M296.786475,127.713525 C296.116263,128.200463 295.178208,128.05189 294.691271,127.381678 C294.204334,126.711466 294.352907,125.773412 295.023119,125.286475 C295.69333,124.799537 296.631385,124.94811 297.118322,125.618322 C297.605259,126.288534 297.456686,127.226588 296.786475,127.713525 Z M255.309593,129.404797 C255.033451,129.404797 254.809593,129.180939 254.809593,128.904797 C254.809593,128.628654 255.033451,128.404797 255.309593,128.404797 C255.585736,128.404797 255.809593,128.628654 255.809593,128.904797 C255.809593,129.180939 255.585736,129.404797 255.309593,129.404797 Z M282.786475,129.713525 C282.116263,130.200463 281.178208,130.05189 280.691271,129.381678 C280.204334,128.711466 280.352907,127.773412 281.023119,127.286475 C281.69333,126.799537 282.631385,126.94811 283.118322,127.618322 C283.605259,128.288534 283.456686,129.226588 282.786475,129.713525 Z M286.786475,154.713525 C286.116263,155.200463 285.178208,155.05189 284.691271,154.381678 C284.204334,153.711466 284.352907,152.773412 285.023119,152.286475 C285.69333,151.799537 286.631385,151.94811 287.118322,152.618322 C287.605259,153.288534 287.456686,154.226588 286.786475,154.713525 Z M258.786475,150.713525 C258.116263,151.200463 257.178208,151.05189 256.691271,150.381678 C256.204334,149.711466 256.352907,148.773412 257.023119,148.286475 C257.69333,147.799537 258.631385,147.94811 259.118322,148.618322 C259.605259,149.288534 259.456686,150.226588 258.786475,150.713525 Z M292.786475,105.713525 C292.116263,106.200463 291.178208,106.05189 290.691271,105.381678 C290.204334,104.711466 290.352907,103.773412 291.023119,103.286475 C291.69333,102.799537 292.631385,102.94811 293.118322,103.618322 C293.605259,104.288534 293.456686,105.226588 292.786475,105.713525 Z M314.786475,112.713525 C314.116263,113.200463 313.178208,113.05189 312.691271,112.381678 C312.204334,111.711466 312.352907,110.773412 313.023119,110.286475 C313.69333,109.799537 314.631385,109.94811 315.118322,110.618322 C315.605259,111.288534 315.456686,112.226588 314.786475,112.713525 Z M240.801887,115.507706 C240.578483,115.670019 240.265798,115.620494 240.103486,115.39709 C239.941173,115.173687 239.990698,114.861002 240.214102,114.698689 C240.437506,114.536377 240.75019,114.585901 240.912503,114.809305 C241.074815,115.032709 241.025291,115.345394 240.801887,115.507706 Z"/>
  </g>
</svg>
