<svg xmlns="http://www.w3.org/2000/svg" width="24" height="63" viewBox="0 0 24 63">
  <path fill="#3B3B3B" d="M16.3128424,15.8840577 C15.9459782,14.8937183 15.6410344,10.3265495 15.5507742,5.1984083 C15.5501918,5.17860928 15.5715437,5.1262001 15.6505457,5.1262001 C16.0566198,5.1021307 16.2810087,4.77913486 16.2810087,4.36743164 L16.2810087,0.776432292 C16.2810087,0.349394531 15.9314201,0 15.5045764,0 L7.95668402,0 C7.52964626,0 7.18025173,0.349394531 7.18025173,0.776432292 L7.18025173,4.36743164 C7.18025173,4.77952308 7.38581217,5.09902497 7.79188626,5.12251204 C7.922521,5.12251204 7.91087451,5.2152957 7.91009808,5.25314678 C7.82042015,10.4313678 7.51528226,14.8943007 7.148418,15.8842518 C4.99013034,21.7063294 0.183043913,21.2012602 0.183043913,28.189539 L0.183043913,53.1780418 C0.183043913,62.7931852 5.02002298,62.3094678 11.7303391,62.2657935 C18.4408493,62.3094678 23.2778283,62.7931852 23.2778283,53.1780418 L23.2778283,28.1893449 C23.2782165,21.201066 18.4711301,21.7063294 16.3128424,15.8840577 Z"/>
</svg>
