<svg xmlns="http://www.w3.org/2000/svg" width="21" height="72" viewBox="0 0 21 72">
  <path fill="#FF2558" d="M47.5664875,0.321757472 C47.2693699,0.0244203834 46.8282486,-0.0772164363 46.4307015,0.0605310893 L34.0092773,4.36549798 C33.8515536,4.42015795 33.7085376,4.5099408 33.5907663,4.62826099 L9.70172328,28.6234409 C9.27541938,29.0516107 9.27541938,29.7439704 9.70172328,30.1721402 L12.5246146,33.0076538 L6.84886776,38.7426705 C6.64252086,38.9512125 6.52946911,39.2278052 6.53155453,39.5208617 C6.53276188,39.8139182 6.64899664,40.0894132 6.85644112,40.2946625 C7.06399536,40.4999118 7.33839283,40.6129636 7.62914438,40.6129636 C7.92439604,40.6129636 8.20098868,40.496619 8.40854292,40.2869794 L14.0732041,34.5630483 L17.0302209,37.5332362 L0.319635046,54.3247145 C-0.107985958,54.7544209 -0.106339573,55.4494148 0.323366851,55.876926 C0.53750663,56.090078 0.817501799,56.1965442 1.09760673,56.1965442 C1.37935804,56.1965442 1.66110935,56.0886511 1.87557841,55.8731942 L43.2460446,14.3122962 C43.3623891,14.1955126 43.4508549,14.0539235 43.504966,13.8981755 L47.8269456,1.45776296 C47.9649126,1.06043544 47.8638246,0.619314079 47.5664875,0.321757472 Z" transform="scale(-1 1) rotate(-51 16.4 65.563)"/>
</svg>
