<svg xmlns="http://www.w3.org/2000/svg" width="22" height="80" viewBox="0 0 22 80">
  <defs>
    <linearGradient id="rocket-a" x1="22.293%" x2="50%" y1="18.04%" y2="100%">
      <stop offset="0%" stop-color="#FF3B3B"/>
      <stop offset="100%" stop-color="#FF1B1B"/>
    </linearGradient>
  </defs>
  <g fill="none" fill-rule="evenodd" transform="scale(-1 1) rotate(-51 18.851 71.594)">
    <path stroke="#944421" stroke-linecap="square" stroke-width="2" d="M38.4983513,20.777146 L0.629320391,59.5964259"/>
    <path stroke="#979797" stroke-linecap="round" stroke-linejoin="round" stroke-width="2" d="M18.5,33.5 L12.9121527,39.3117091"/>
    <path fill="url(#rocket-a)" fill-rule="nonzero" d="M51.4307015,0.0605310893 L39.0092773,4.36549798 C38.8515536,4.42015795 38.7085376,4.5099408 38.5907663,4.62826099 L14.7017233,28.6234409 C14.2754194,29.0516107 14.2754194,29.7439704 14.7017233,30.1721402 L17.5246146,33.0076538 L19.0732041,34.5630483 L22.0368558,37.8568808 L22.0368558,37.8568808 C22.775664,38.6779997 24.0402348,38.7447257 24.8613537,38.0059175 C24.8907862,37.9794353 24.9194259,37.9520849 24.9472349,37.9239026 L48.2460446,14.3122962 C48.3623891,14.1955126 48.4508549,14.0539235 48.504966,13.8981755 L52.8269456,1.45776296 C52.9649126,1.06043544 51.8282486,-0.0772164363 51.4307015,0.0605310893 Z"/>
    <path fill="#B11539" d="M48.1896667,14.8204597 L38,4.48220123 L51.1224065,0.0651032111 L51.1224065,0.0651032111 C51.6157178,-0.100948986 52.1602603,0.0574936445 52.4874749,0.462289904 L52.4874749,0.462289904 L52.4874749,0.462289904 C52.8257334,0.880748553 52.922478,1.44481878 52.7429908,1.95207687 L48.1896667,14.8204597 Z"/>
  </g>
</svg>
