<svg xmlns="http://www.w3.org/2000/svg" width="628" height="583" viewBox="0 0 628 583">
  <g fill="none" fill-rule="evenodd" transform="translate(44 31)">
    <g stroke="#000" stroke-linecap="round" stroke-linejoin="round" stroke-width="80">
      <path stroke-dasharray="1 114" d="M266.5,461 C288.168046,461 309.008533,457.4568 328.473678,450.918184 C405.507028,425.041597 461,352.251338 461,266.5 C461,159.080616 373.919384,72 266.5,72 C244.356889,72 223.078023,75.7002702 203.248011,82.5162007 C126.879811,108.76532 72,181.223727 72,266.5 C72,373.919384 159.080616,461 266.5,461 Z" transform="rotate(-60 266.5 266.5)"/>
      <path d="M381.184819,423.607752 C429.571163,388.226654 461,331.033626 461,266.5 C461,159.080616 373.919384,72 266.5,72 C244.356889,72 223.078023,75.7002702 203.248011,82.5162007"/>
    </g>
    <path fill="#000" d="M319.68,360.496 C307.007937,367.984037 294.336063,371.728 281.664,371.728 C268.223933,371.728 257.184043,367.312044 248.544,358.48 C239.903957,349.647956 235.584,337.168081 235.584,321.04 L235.584,179.92 L273.024,179.92 L273.024,222.256 L317.088,222.256 L317.088,249.616 L273.024,249.616 L273.024,314.416 C273.024,330.544081 278.495945,338.608 289.44,338.608 C295.008028,338.608 302.207956,336.496021 311.04,332.272 L319.68,360.496 Z"/>
  </g>
</svg>
