<svg xmlns="http://www.w3.org/2000/svg" width="560" height="343" viewBox="0 0 560 343">
  <g fill="none" fill-rule="evenodd">
    <path fill="#F2F2F2" d="M291.5,343 C452.491005,343 559.792969,324.013841 559.792969,314.625 C559.792969,305.236159 452.491005,309 291.5,309 C130.508995,309 0,316.611159 0,326 C0,335.388841 130.508995,343 291.5,343 Z"/>
    <path fill="#6CBE68" d="M123.410156,313.53125 L102.943359,313.53125 C70.766276,285.75651 50.0833333,260.677083 40.8945313,238.292969 C80.7565104,265.003906 103.000651,286.696615 107.626953,303.371094 C107.626953,291.876302 106.065755,281.375651 102.943359,271.869141 C46.8105469,238.292969 40.8945313,223.691406 36.1386719,204.453125 C49.9121094,212.765625 63.3554688,219.966797 63.3554688,219.357422 C70.2005208,231.98112 78.6927083,241.522786 88.8320313,247.982422 C85.2994792,239.504557 81.0065104,232.725911 75.953125,227.646484 C53.1591797,202.948242 54.6777344,210.005859 40.8945313,188.988281 C37.7239583,183.469401 36.1386719,175.228516 36.1386719,164.265625 C43.6653646,171.329427 51.2900391,179.570313 59.0126953,188.988281 C61.9078776,195.157552 65.2408854,200.3125 69.0117188,204.453125 L54.6777344,169.904297 C28.5638021,156.33138 16.608724,137.029948 18.8125,112 C26.2428385,122.946615 36.3772786,136.42806 49.2158203,152.444336 C49.2158203,136.712565 51.0364583,123.23112 54.6777344,112 C59.7259115,121.399089 61.9179688,140.700521 61.2539063,169.904297 L75.953125,212.765625 C75.1328125,178.380208 80.3040365,154.567708 91.4667969,141.328125 C95.8476563,165.789714 93.6292318,194.5625 84.8115234,227.646484 C88.2412109,239.294271 94.2851563,251.122396 102.943359,263.130859 C110.180048,279.233018 117.002313,296.033148 123.410156,313.53125 Z"/>
    <path fill="#F0BD94" d="M183.548828,138.33252 C196.102164,157.872233 205.264925,189.457682 211.037109,233.088867 L221.152344,227.71582 C217.872396,201.30013 205.337891,171.505697 183.548828,138.33252 Z"/>
    <path fill="#482D4D" d="M256.783203,262.089844 L460.195312,295.050781 L463.775391,310.324219 C404.969401,316.11263 359.952474,316.11263 328.724609,310.324219 C319.520182,308.285156 290.429688,310.068359 241.453125,315.673828 L256.783203,262.089844 Z"/>
    <path fill="#56385C" d="M182.820312,249.355469 C261.415365,200.040365 306.023437,175.774089 316.644531,176.556641 C332.576172,177.730469 406.410156,289.144531 406.03125,288.076172 C401.303385,291.285807 399.709635,296.693359 401.25,304.298828 C343.295573,267.669922 309.783203,237.598958 300.712891,214.085937 C291.69987,221.553385 276.969401,236.97526 256.521484,260.351562 L182.820312,249.355469 Z"/>
    <path fill="#F0CA9B" d="M400.263672,301.975586 C400.263672,296.290039 402.171549,291.388021 405.987305,287.269531 C413.290039,298.705078 428.316732,307.73112 451.067383,314.347656 C451.067383,316.636719 449.366536,318.246419 445.964844,319.176758 C431.885606,321.042145 429.938477,315.763672 414.619141,319.176758 C414.310547,319.176758 408.734375,319.176758 407.21875,314.347656 C407.318359,308.723307 405,304.599284 400.263672,301.975586 Z"/>
    <path fill="#F0BD94" d="M460.87793,297.228516 C482.730143,299.802734 501.557292,298.96875 517.359375,294.726562 C520.065755,297.664714 518.712565,300.370117 513.299805,302.842773 C505.493815,304.372721 497.950195,307.78125 490.668945,313.068359 C486.506836,313.068359 483.207031,311.684896 480.769531,308.917969 C473.955078,308.917969 467.996745,309.395182 462.894531,310.349609 C462.894531,305.345052 462.222331,300.971354 460.87793,297.228516 Z"/>
    <path fill="#EB7162" d="M135.761719,325.722656 C94.4648438,270.509115 81.8294271,223.042969 97.8554687,183.324219 C113.88151,143.605469 131.091146,172.822917 149.484375,270.976562 C224.096354,210.283854 265.184896,207.885417 272.75,263.78125 C280.315104,319.677083 234.652344,340.324219 135.761719,325.722656 Z"/>
    <path fill="#562C2C" d="M146.875,95.3867188 C119.490234,59.5429687 117.705729,32.2070312 141.521484,13.3789062 L146.875,13.3789062 C147.914063,10.7141927 148.916667,8.59765625 149.882813,7.02929687 C192.017578,-14.4414063 242.761719,22.0996094 206.44043,69.9589844 C205.156689,71.6505273 209.206118,60.7493667 207.884766,62.6650391 C193.333984,65.1448568 181.05306,61.9039714 171.041992,52.9423828 C162.706055,65.8616536 155.092773,69.1025391 148.202148,62.6650391 C144.71698,67.3142517 145.666016,75.5058594 153.871094,77.0283203 C156.152344,88.8896484 152.827637,96.2729492 146.875,95.3867188 Z"/>
    <path fill="#F0CA9B" d="M140.584961,115.701172 C154.599609,129.867188 170.672363,148.51416 180.983887,144.60791 C167.669434,131.05127 163.635091,116.598307 168.880859,101.249023 C176.709635,106.094076 183.520508,106.972656 189.313477,103.884766 C203.921875,84.4804688 204.96875,73.140625 208.548828,62.140625 C195.029948,65.3821615 182.695312,62.226888 171.544922,52.6748047 C162.59375,64.9514974 155.032552,68.1067708 148.861328,62.140625 C145.833984,64.0722656 145.255208,68.1907552 147.125,74.4960938 C149.875163,76.1315104 152.102051,77.016276 153.805664,77.1503906 C154.449219,80.4147135 154.449219,84.8880208 153.805664,90.5703125 C151.943685,93.0620117 149.716797,94.5476888 147.125,95.0273438 C147.125,95.190918 145.466797,105.375 140.584961,115.701172 Z"/>
    <path fill="#E64B66" d="M139.079102,112.145508 C152.814779,129.763346 166.507812,140.512044 180.158203,144.391602 C174.507487,137.494141 170.786621,131.74707 168.995605,127.150391 C170.626042,126.280197 180.158203,132.771484 185.907227,141.323242 C199.301758,167.616211 207.779622,198.136719 211.34082,232.884766 L150.095703,277.970703 L123.410156,189.208984 C123.410156,166.01237 128.633138,140.324544 139.079102,112.145508 Z"/>
    <path fill="#F0CA9B" d="M142.740234,169.046875 C155.700195,170.233398 166.666992,169.046875 172.652344,169.046875 C191.998047,211.428711 206.584961,207.192383 211.15625,206.691406 C228.057943,203.311849 241.307943,197.03776 250.90625,187.869141 C257.156901,178.201823 268.258464,175.330729 284.210938,179.255859 C282.747396,181.726562 274.063151,185.823568 258.158203,191.546875 C236.844401,216.745443 215.567708,229.024089 194.328125,228.382812 C194.331055,228.462891 157.386719,230.81543 142.740234,169.046875 Z"/>
    <polygon fill="#D8D8D8" points="243.819 207.084 246.698 211.164 313.561 169.479 326.686 93.969 321.828 92.654 308.061 168.019"/>
  </g>
</svg>
