<svg xmlns="http://www.w3.org/2000/svg" width="80" height="80" viewBox="0 0 80 80">
  <g fill="none" fill-rule="evenodd" transform="translate(4 9)">
    <g transform="translate(0 20.113)">
      <rect width="71.169" height="40.757" fill="#E6E6E6" rx="20.379"/>
      <g transform="translate(6.189 7.736)">
        <circle cx="12.377" cy="12.377" r="12.377" fill="#FFF"/>
        <path fill="#666" d="M6.35103991,13.9415156 C5.7583872,13.8503383 5.32530132,13.6622878 5.0517693,13.3773586 C4.77823728,13.0924294 4.64147332,12.779012 4.64147332,12.437097 C4.64147332,12.0723876 4.78963427,11.7304777 5.08596063,11.411357 C5.38228699,11.0922364 5.84956385,10.9212814 6.48780524,10.8984871 L9.90693844,10.8984871 L9.90693844,6.07750926 C10.0209101,5.57603388 10.2260561,5.21132999 10.5223824,4.98338664 C10.8187088,4.75544328 11.1720157,4.64147332 11.5823137,4.64147332 C11.9470231,4.64147332 12.288933,4.74974478 12.6080537,4.96629097 C12.9271744,5.18283715 13.1437173,5.51904856 13.257689,5.97493526 L13.257689,10.8984871 L17.4974141,10.8984871 C17.9988895,11.0352531 18.3692919,11.2460975 18.6086324,11.5310267 C18.8479729,11.8159559 18.9676414,12.1179763 18.9676414,12.437097 C18.9676414,12.7562177 18.836576,13.0525396 18.5744411,13.3260716 C18.3123062,13.5996037 17.9191099,13.8047496 17.3948401,13.9415156 L13.257689,13.9415156 L13.257689,18.8308761 C13.2348946,19.4235288 13.0525427,19.8509162 12.7106277,20.113051 C12.3687126,20.3751859 11.9926117,20.5062514 11.5823137,20.5062514 C11.1720157,20.5062514 10.8073118,20.3808844 10.4881911,20.1301467 C10.1690704,19.879409 9.97532145,19.4919111 9.90693844,18.9676414 L9.90693844,13.9415156 L6.35103991,13.9415156 Z"/>
        <circle cx="46.415" cy="12.377" r="12.377" fill="#FFF"/>
        <g transform="translate(37.132 3.094)">
          <circle cx="9.283" cy="3.094" r="3.094" fill="#448BC4"/>
          <circle cx="9.283" cy="15.472" r="3.094" fill="#EFD358"/>
          <circle cx="15.472" cy="9.283" r="3.094" fill="#E86C60"/>
          <circle cx="3.094" cy="9.283" r="3.094" fill="#4DA34D"/>
        </g>
      </g>
    </g>
    <g transform="translate(32.49)">
      <rect width="6.189" height="12.377" y="7.736" fill="#B3B3B3"/>
      <path fill="#444" d="M3.09431554,0 L3.09431554,0 L3.09431554,0 C3.94878719,-1.56963894e-16 4.64147332,0.692686129 4.64147332,1.54715777 L4.64147332,7.73578886 L1.54715777,7.73578886 L1.54715777,1.54715777 L1.54715777,1.54715777 C1.54715777,0.692686129 2.2398439,1.56963894e-16 3.09431554,0 Z"/>
    </g>
  </g>
</svg>
