<svg xmlns="http://www.w3.org/2000/svg" xmlns:xlink="http://www.w3.org/1999/xlink" width="959" height="181" viewBox="0 0 959 181">
  <defs>
    <path id="logo-a" d="M88.4217146,148.777142 C88.4217146,140.714513 81.8868577,134.181029 73.8242288,134.181029 C73.1014866,134.181029 72.3979441,134.249601 71.7040015,134.35246 C60.27726,136.018745 52.8153174,134.027431 52.8358882,122.654174 L52.8427458,72.0594299 L73.0205723,72.0594299 C81.0832012,72.0594299 87.6180581,65.524573 87.6180581,57.4619441 C87.6180581,49.3993152 81.0832012,42.8644583 73.0205723,42.8630872 L52.8454858,42.8630872 L52.8495991,15.2781729 C52.8495991,7.20731738 46.3133711,0.671089355 38.2507444,0.671089355 C30.1894866,0.671089355 23.6532585,7.20731738 23.6532585,15.2699441 L23.6532585,42.8644583 L14.7677734,42.8644583 C6.70514453,42.8644583 0.170287598,49.3993152 0.170287598,57.4619441 C0.170287598,65.524573 6.70514453,72.0594299 14.7677734,72.0594299 L23.6518875,72.0594299 L23.6518875,121.87383 C23.7053733,148.825143 42.1291445,167.907202 75.3094858,163.301944 C75.5412578,163.2704 75.7414858,163.2512 75.9472004,163.221028 C83.0004583,162.175999 88.4217146,156.117028 88.4217146,148.777142 Z M148.948,105.90032 C148.948,113.962881 155.48416,120.499041 163.546721,120.499041 L214.046081,120.499041 C222.108642,120.499041 228.644802,113.962881 228.644802,105.90032 C228.644802,71.8803198 204.052482,44.9134392 169.393122,44.9134392 L169.319682,44.9134392 C137.340162,44.9134392 110.756322,72.2863987 110.762081,105.900318 C110.762081,113.889437 112.062401,121.701437 114.737921,128.989277 C116.74384,134.452637 119.52736,139.617917 123.082721,144.270556 C125.746721,147.759676 128.84416,150.956475 132.330401,153.765915 C137.560482,157.980795 143.667522,161.305755 150.399522,163.527674 C157.130083,165.753915 164.471203,166.888635 172.244322,166.888635 L172.258721,166.888635 C179.936802,166.881435 187.459363,165.331996 194.502403,162.598876 C201.339522,159.934876 207.734563,156.134716 213.311682,151.251676 C213.350563,151.219996 213.388002,151.186876 213.426883,151.155196 C213.552162,151.044315 213.683203,150.940635 213.808482,150.828315 L213.798401,150.816795 C216.7792,148.144156 218.66416,144.276315 218.66416,139.957755 C218.66416,131.895194 212.128,125.360473 204.065439,125.360473 C200.321439,125.360473 196.917279,126.781752 194.333919,129.100153 L194.322399,129.087194 C191.474079,131.650394 187.81648,133.879514 183.91984,135.388633 C180.04336,136.902072 175.953761,137.691192 172.309122,137.691192 L172.258723,137.691192 C166.379203,137.688311 161.585444,136.690392 157.660004,135.107831 C154.712324,133.915511 152.238405,132.390552 150.104324,130.579032 C146.916164,127.858872 144.453763,124.464791 142.699844,120.329111 C140.953124,116.203511 139.958083,111.326232 139.958083,105.900313 C139.963842,88.2415925 153.603522,74.1137524 169.338403,74.1094326 C182.276804,74.1209529 191.861444,80.760793 196.508324,91.3030339 L163.546725,91.3030339 C155.484164,91.3030339 148.948004,97.8391938 148.948004,105.900313 L148.948,105.90032 Z M345.338081,124.855041 C341.566721,124.855041 338.140962,126.297921 335.550401,128.646561 C332.661761,131.104642 329.326721,133.097601 325.670561,134.477122 C321.917921,135.894081 317.83984,136.678881 313.505439,136.678881 C308.813919,136.677441 304.421919,135.761601 300.421599,134.115682 C294.425439,131.650403 289.33216,127.516162 285.786881,122.401281 C284.0128,119.845281 282.6232,117.047363 281.674241,114.079522 C280.725281,111.110243 280.214081,107.966723 280.212642,104.660482 C280.228482,76.5300811 315.139842,62.304322 336.230083,81.2619211 L336.241604,81.2504009 C338.826403,83.5774414 342.237763,85.0059211 345.988964,85.0059211 C354.052964,85.0059211 360.587685,78.4697612 360.587685,70.4086418 C360.587685,66.0972815 358.708484,62.2366418 355.737763,59.5654414 L355.749284,59.5510405 C316.044164,23.8577612 251.006565,51.1184009 251.016646,104.660482 C251.015207,113.126241 252.790727,121.266561 255.990407,128.62352 C260.791367,139.66832 268.748806,148.962079 278.709286,155.51264 C283.690245,158.78864 289.180966,161.38064 295.034565,163.153279 C300.883844,164.92448 307.100324,165.874881 313.498243,165.874881 L313.505441,165.874881 C321.389441,165.87632 328.998401,164.433439 335.991041,161.789599 C342.988,159.14432 349.37584,155.30816 354.898241,150.52016 L354.872322,150.49136 C357.968322,147.814401 359.935363,143.86736 359.935363,139.453761 C359.935363,131.3912 353.400642,124.855041 345.338081,124.855041 Z M489.535771,97.1908577 L489.535771,97.0221736 C489.426057,57.9844583 447.384913,33.0889158 412.118628,50.6459448 L412.118628,16.929374 C412.118628,8.86674512 405.5824,2.33326147 397.519773,2.33326147 C389.458516,2.33326147 382.922288,8.86674731 382.922288,16.929374 L382.922288,149.312002 L382.926401,149.312002 C382.926401,149.342173 382.922288,149.370972 382.922288,149.401145 C382.922288,157.463774 389.458516,163.998631 397.521142,163.998631 C405.583771,163.998631 412.118628,157.463774 412.118628,149.401145 C412.118628,149.370975 412.113142,149.340802 412.113142,149.312002 L412.118628,149.312002 L412.118628,97.1908599 C412.119999,94.0379463 412.765943,91.1072026 413.949487,88.3917734 C423.83063,65.7001169 460.332571,71.5190872 460.339428,97.1908577 L460.339428,149.438171 L460.3408,149.438171 C460.36137,157.484343 466.886627,164 474.936912,164 C482.987197,164 489.513825,157.484343 489.534396,149.438171 L489.535767,149.438171 L489.535771,97.1908577 Z M530.658059,31.5282288 C538.720688,31.5282288 545.256916,24.9920007 545.256916,16.929374 C545.256916,8.86674512 538.720688,2.33326147 530.658061,2.33326147 C522.595432,2.33326147 516.060575,8.86674731 516.060575,16.929374 C516.060575,24.9920029 522.595432,31.528231 530.658061,31.528231 L530.658059,31.5282288 Z M530.658061,46.5947451 C522.595432,46.5947451 516.060575,53.1309731 516.060575,61.1935999 L516.060575,149.401143 C516.060575,157.463772 522.595432,164 530.658061,164 C538.72069,164 545.256918,157.463772 545.256918,149.401145 L545.256918,61.1936021 C545.256918,53.1309731 538.72069,46.5947451 530.658063,46.5947451 L530.658061,46.5947451 Z M608.596,105.90032 C608.596,113.962881 615.13216,120.499041 623.194721,120.499041 L673.694081,120.499041 C681.756642,120.499041 688.292802,113.962881 688.292802,105.90032 C688.292802,71.8803198 663.700482,44.9134392 629.041122,44.9134392 L628.967682,44.9134392 C596.988162,44.9134392 570.404322,72.2863987 570.410081,105.900318 C570.410081,113.889437 571.710401,121.701437 574.385921,128.989277 C576.39184,134.452637 579.17536,139.617917 582.730721,144.270556 C585.394721,147.759676 588.49216,150.956475 591.978401,153.765915 C597.208482,157.980795 603.315522,161.305755 610.047522,163.527674 C616.778083,165.753915 624.119203,166.888635 631.892322,166.888635 L631.906721,166.888635 C639.584802,166.881435 647.107363,165.331996 654.150403,162.598876 C660.987522,159.934876 667.382563,156.134716 672.959682,151.251676 C672.998563,151.219996 673.036002,151.186876 673.074883,151.155196 C673.200162,151.044315 673.331203,150.940635 673.456482,150.828315 L673.446401,150.816795 C676.4272,148.144156 678.31216,144.276315 678.31216,139.957755 C678.31216,131.895194 671.776,125.360473 663.713439,125.360473 C659.969439,125.360473 656.565279,126.781752 653.981919,129.100153 L653.970399,129.087194 C651.122079,131.650394 647.46448,133.879514 643.56784,135.388633 C639.69136,136.902072 635.601761,137.691192 631.957122,137.691192 L631.906723,137.691192 C626.027203,137.688311 621.233444,136.690392 617.308004,135.107831 C614.360324,133.915511 611.886405,132.390552 609.752324,130.579032 C606.564164,127.858872 604.101763,124.464791 602.347844,120.329111 C600.601124,116.203511 599.606083,111.326232 599.606083,105.900313 C599.611842,88.2415925 613.251522,74.1137524 628.986403,74.1094326 C641.924804,74.1209529 651.509444,80.760793 656.156324,91.3030339 L623.194725,91.3030339 C615.132164,91.3030339 608.596004,97.8391938 608.596004,105.900313 L608.596,105.90032 Z M751.56784,88.4158401 C749.381921,87.6483198 744.318881,85.561759 743.462081,83.4161599 C743.401601,83.2375991 743.326721,83.0273582 743.318081,82.4311982 C743.318081,78.3775991 743.934401,74.3772793 755.60416,74.3772793 C765.90736,74.3772793 771.841601,78.6151982 777.402881,80.9494392 C778.9912,81.7284797 780.737921,82.2310405 782.586881,82.3851216 C782.9872,82.4240022 783.388959,82.4499211 783.79936,82.4499211 L783.79936,82.4456013 C783.80368,82.4456013 783.806561,82.4470405 783.810881,82.4470405 C791.873441,82.4470405 798.408162,75.9108806 798.408162,67.8483198 C798.408162,62.2064009 795.201281,57.3204819 790.516962,54.8912026 L790.518401,54.882563 C786.292,52.6995225 781.69984,50.5798423 776.789439,48.8561621 C746.509119,38.292322 714.12064,50.2616013 714.12064,82.1878423 L714.13216,82.1878423 C714.13216,82.2598423 714.122079,82.3289617 714.122079,82.4009617 L714.122079,82.5247996 C714.179678,103.92464 732.006878,114.26384 752.960318,119.02736 C757.621597,120.010881 772.359998,123.442401 774.034719,127.97552 C774.112478,128.213119 774.201757,128.541439 774.206077,129.257119 L774.206077,129.258559 C774.201757,135.716959 766.582716,137.300959 760.119996,137.29952 C749.292635,137.29952 741.412955,133.578561 733.268315,128.234721 L733.200635,128.336962 C730.915356,126.850881 728.192315,125.97968 725.263356,125.97968 C717.200795,125.97968 710.666074,132.51584 710.666074,140.578401 C710.666074,146.361441 714.037115,151.343842 718.912955,153.706883 C731.678554,161.785284 744.377915,166.495525 760.119996,166.495525 C787.426716,166.495525 803.402077,149.700804 803.402077,129.257124 C803.423676,95.706563 761.166876,91.7969639 751.567836,88.4158445 L751.56784,88.4158401 Z M823.141257,164.744686 C825.8288,164.744686 828.007543,162.565944 828.007543,159.878401 C828.007543,157.190858 825.8288,155.012573 823.141258,155.012573 C820.453715,155.012573 818.275429,157.190858 818.275429,159.878401 C818.275429,162.565944 820.453715,164.744687 823.141258,164.744687 L823.141257,164.744686 Z M855.198856,125.951086 C866.065142,125.951086 874.874285,134.758856 874.874285,145.625599 C874.874285,156.492342 866.064685,165.301028 855.198856,165.301028 C851.544914,165.301028 848.1232,164.304914 845.191543,162.5696 L845.191543,175.213714 C845.191543,177.901257 843.0128,180.079999 840.325714,180.079999 C837.638172,180.079999 835.459429,177.901257 835.459429,175.213714 L835.459429,131.087085 L835.4608,131.087085 C835.4608,131.077027 835.459429,131.066513 835.459429,131.056456 C835.459429,128.368914 837.638172,126.191085 840.325715,126.191085 C842.265829,126.191085 843.935772,127.32937 844.717029,128.971885 C847.751543,127.058286 851.346514,125.951086 855.198857,125.951086 L855.198856,125.951086 Z M855.198856,155.632914 C860.725713,155.632914 865.206628,151.152915 865.206628,145.625601 C865.206628,140.098744 860.725713,135.618286 855.198856,135.618286 C849.671542,135.618286 845.192,140.098743 845.192,145.6256 C845.192,151.152914 849.671542,155.632914 855.198856,155.632914 L855.198856,155.632914 Z M907.97008,126.62864 L907.971041,126.625279 C907.916321,126.60608 907.863041,126.5888 907.808321,126.5696 C907.800161,126.5672 907.79248,126.563839 907.784321,126.560959 C900.63424,124.04624 895.08064,124.539679 891.00976,126.688159 C891.009281,126.687679 891.009281,126.686719 891.008801,126.68624 C891.008321,126.68624 891.007361,126.6872 891.006881,126.6872 C890.116001,125.54816 888.730721,124.8152 887.173122,124.8152 C884.485601,124.8152 882.307361,126.99344 882.307361,129.68096 L882.307361,142.34624 C882.307361,142.35008 882.306881,142.35392 882.306881,142.35776 C882.306881,142.358721 882.307361,142.359681 882.307361,142.360641 L882.307361,159.199521 L882.308801,159.199521 C882.308801,159.209601 882.307361,159.219682 882.307361,159.229762 C882.307361,161.917282 884.485601,164.095522 887.173122,164.095522 C889.860642,164.095522 892.039362,161.917282 892.039362,159.229762 C892.039362,159.219682 892.037922,159.209601 892.037922,159.199521 L892.039362,159.199521 L892.039362,142.341441 C892.039842,141.03536 892.732962,136.03184 896.516322,134.87072 C898.996002,134.11808 902.244162,134.91248 904.692162,135.78848 L904.694562,135.7832 C905.209602,135.96848 905.762562,136.075041 906.341923,136.075041 C909.029443,136.075041 911.208163,133.8968 911.208163,131.20928 C911.208163,129.09392 909.855523,127.29872 907.970083,126.62864 L907.97008,126.62864 Z M957.162399,136.952481 C958.21936,139.395681 958.80544,142.097121 958.80448,144.907041 C958.80592,156.14336 949.53664,165.2504 938.12416,165.248 L938.12128,165.248 C926.67808,165.248 917.439041,156.10976 917.44336,144.90704 C917.442881,142.80032 917.771681,140.75264 918.382721,138.83072 C918.99376,136.9088 919.885601,135.11264 921.00592,133.48976 C923.24752,130.24496 926.40064,127.687041 930.1072,126.15152 C932.577281,125.12864 935.296001,124.56512 938.124161,124.5656 L938.126561,124.5656 C940.24576,124.5656 942.305441,124.88192 944.243681,125.47232 C946.182881,126.06272 948.00064,126.92528 949.64992,128.01536 C952.94608,130.19552 955.576,133.28528 957.1624,136.95248 L957.162399,136.952481 Z M938.124159,155.516002 C944.132319,155.516002 949.068639,150.810083 949.072959,144.907043 C949.072479,143.808802 948.903519,142.764802 948.590559,141.779363 C948.277119,140.793923 947.818239,139.866083 947.233599,139.019363 C946.064319,137.324483 944.388159,135.957923 942.418719,135.143842 C941.104479,134.600482 939.663519,134.298082 938.124158,134.297602 C936.969279,134.298082 935.870559,134.468482 934.838559,134.782402 C933.806079,135.096802 932.840799,135.555202 931.965759,136.133602 C930.213759,137.290882 928.833279,138.927202 928.019199,140.814082 C927.475359,142.074082 927.176319,143.443522 927.175359,144.907042 C927.178239,150.753922 932.056479,155.514082 938.124159,155.516001 L938.124159,155.516002 Z"/>
  </defs>
  <g fill="none" fill-rule="evenodd">
    <use fill="#292929" xlink:href="#logo-a"/>
  </g>
</svg>
