<svg xmlns="http://www.w3.org/2000/svg" width="80" height="80" viewBox="0 0 80 80">
  <g fill="none" fill-rule="evenodd" transform="translate(19 10)">
    <g transform="translate(2.294 10.352)">
      <path stroke="#BFDEE0" stroke-linecap="square" stroke-width="2" d="M19.4098166,27.8207371 L19.4098166,47.4023253"/>
      <path fill="#BFDEE0" d="M2,0 L36.8196332,0 L36.8196332,0 C37.9242027,-2.02906125e-16 38.8196332,0.8954305 38.8196332,2 L38.8196332,18.1158288 L38.8196332,18.1158288 C38.8196332,28.1209248 30.7089003,36.2316576 20.7038043,36.2316576 L18.1158288,36.2316576 L18.1158288,36.2316576 C8.11073283,36.2316576 1.22527088e-15,28.1209248 0,18.1158288 L0,2 L0,2 C-1.3527075e-16,0.8954305 0.8954305,2.02906125e-16 2,0 Z"/>
      <path stroke="#BFDEE0" stroke-linecap="round" stroke-width="2" d="M8.41092052,47.8775476 L31.7386168,47.8775476"/>
      <path fill="#E86C60" d="M2.58797554,16.821841 C2.58797554,26.215402 10.2029613,33.8303878 19.5965223,33.8303878 C28.9900833,33.8303878 36.6050691,26.215402 36.6050691,16.821841 L2.58797554,16.821841 Z"/>
    </g>
    <g stroke="#223E48" stroke-linecap="round" stroke-linejoin="round" stroke-width="2">
      <g transform="translate(17.822)">
        <path d="M.646993886 38.1726393L14.2338655 1.29398777M14.8808594 1.29398777L22.7518797 1.29398777"/>
      </g>
      <g transform="matrix(-1 0 0 1 24.292 0)">
        <path d="M.646993886 38.1726393L14.2338655 1.29398777M14.8808594 1.29398777L22.7518797 1.29398777"/>
      </g>
    </g>
  </g>
</svg>
