<?xml version="1.0" encoding="utf-8"?>
<!-- Generator: Adobe Illustrator 19.2.0, SVG Export Plug-In . SVG Version: 6.00 Build 0)  -->
<svg version="1.1" id="PATTERN" xmlns="http://www.w3.org/2000/svg" xmlns:xlink="http://www.w3.org/1999/xlink" x="0px" y="0px"
	 viewBox="0 0 500 500" style="enable-background:new 0 0 500 500;" xml:space="preserve">
<style type="text/css">
	.st0{fill:none;}
	.st1{clip-path:url(#SVGID_2_);fill:#1E1E1E;}
	.st2{clip-path:url(#SVGID_4_);fill:#1E1E1E;}
	.st3{clip-path:url(#SVGID_6_);fill:#1E1E1E;}
	.st4{clip-path:url(#SVGID_8_);fill:#1E1E1E;}
	.st5{opacity:7.000000e-02;fill:url(#Nueva_muestra_de_motivo_5);}
</style>
<pattern  x="-150" y="-150" width="210" height="210" patternUnits="userSpaceOnUse" id="Nueva_muestra_de_motivo_5" viewBox="206.2 -408.8 210 210" style="overflow:visible;">
	<g>
		<rect x="206.2" y="-408.8" class="st0" width="210" height="210"/>
		<g>
			<defs>
				<rect id="SVGID_1_" x="210" y="-210" width="210" height="210"/>
			</defs>
			<clipPath id="SVGID_2_">
				<use xlink:href="#SVGID_1_"  style="overflow:visible;"/>
			</clipPath>
			<path class="st1" d="M219.6-187.5l-17.7-17.9l-9.5,11.1l17.6,17L219.6-187.5z M202.1-201l13.3,13.6l-5.5,5.8l-13.4-13L202.1-201z
				"/>
			<path class="st1" d="M407.1-209.8l-9.6-9.3l-7,7l-14.9-15l-10.2,9.5l7,7.6l-7.3,7.5l17.2,17.1L407.1-209.8z M376.6-210l-7-7.4
				l5.8-5.5l15,15l7-7l5.3,5.2l-20.4,20.1l-13-12.9L376.6-210z"/>
			<path class="st1" d="M347.1-225l-9.6-9.6l-25.1,25.1l9.6,9.6L347.1-225z M337.5-230.4l5.4,5.4L322-204.1l-5.4-5.4L337.5-230.4z"
				/>
			<path class="st1" d="M339.6-172.5L293-219.9l-9.5,10.5l46.6,46.6L339.6-172.5z M293-215.6l42.3,43.1l-5.4,5.4l-42.4-42.4
				L293-215.6z"/>
			<path class="st1" d="M234.6-202.5L217-220.1l-9.6,9.6l17.6,17.6L234.6-202.5z M217-215.9l13.4,13.4l-5.4,5.4l-13.4-13.4
				L217-215.9z"/>
			<path class="st1" d="M429.6-187.5l-17.7-17.9l-9.5,11.1l17.6,17L429.6-187.5z M412.1-201l13.3,13.6l-5.5,5.8l-13.4-13L412.1-201z
				"/>
			<path class="st1" d="M279.6-202.5l-9.6-9.6l-7.5,7.5l-15-15l-9.6,9.6l24.6,24.6L279.6-202.5z M247.5-215.4l15,15l7.5-7.5l5.4,5.4
				l-12.9,12.9L242.1-210L247.5-215.4z"/>
			<path class="st1" d="M369.7-187.5l-10.2-9.6l-7.2,7.4l-5.1-5.3l15-15l-9.6-9.6L327.8-195l24.5,24.6L369.7-187.5z M352.5-215.4
				l5.4,5.4l-15,15l9.4,9.7l7.3-7.6l5.8,5.4l-13.1,12.9L332-195L352.5-215.4z"/>
		</g>
		<g>
			<defs>
				<rect id="SVGID_3_" y="-210" width="210" height="210"/>
			</defs>
			<clipPath id="SVGID_4_">
				<use xlink:href="#SVGID_3_"  style="overflow:visible;"/>
			</clipPath>
			<path class="st2" d="M219.6-187.5l-17.7-17.9l-9.5,11.1l17.6,17L219.6-187.5z M202.1-201l13.3,13.6l-5.5,5.8l-13.4-13L202.1-201z
				"/>
			<path class="st2" d="M234.6-202.5L217-220.1l-9.6,9.6l17.6,17.6L234.6-202.5z M217-215.9l13.4,13.4l-5.4,5.4l-13.4-13.4
				L217-215.9z"/>
		</g>
		<g>
			<defs>
				<rect id="SVGID_5_" x="210" y="-420" width="210" height="210"/>
			</defs>
			<clipPath id="SVGID_6_">
				<use xlink:href="#SVGID_5_"  style="overflow:visible;"/>
			</clipPath>
			<path class="st3" d="M324.6-337.5L300-362.1l-9.6,9.6l24.6,24.6L324.6-337.5z M300-357.9l20.4,20.4l-5.4,5.4l-20.4-20.4
				L300-357.9z"/>
			<path class="st3" d="M384.6-352.5l-9.6-9.6l-22.5,22.5l-12.9-12.9l5.9-5.9l7.5,7.5l9.6-9.6l-17.1-17.1L330-362.1l-30-30
				L267.9-360l9.6,9.6l22.5-22.5l52.5,52.5L384.6-352.5z M277.5-354.6l-5.4-5.4l27.9-27.9l30,30l15.5-15.5l12.9,12.9l-5.4,5.4
				l-7.5-7.5l-10.1,10.1l17.1,17.1l22.5-22.5l5.4,5.4l-27.9,27.9L300-377.1L277.5-354.6z"/>
			<path class="st3" d="M294.6-337.5l-9.6-9.6l-7.5,7.5l-23-23l-9.6,9.6l32.6,32.6L294.6-337.5z M254.5-358.4l23,23l7.5-7.5l5.4,5.4
				l-12.9,12.9L249.1-353L254.5-358.4z"/>
			<path class="st3" d="M300-312.9l15,15l9.6-9.6L300-332.1L267.9-300l9.6,9.6L300-312.9z M300-327.9l20.4,20.4l-5.4,5.4l-15-15
				l-22.5,22.5l-5.4-5.4L300-327.9z"/>
			<path class="st3" d="M354.6-307.5l-9.6-9.6l-30,30l-15-15l-9.6,9.6l24.6,24.6L354.6-307.5z M300-297.9l15,15l30-30l5.4,5.4
				L315-272.1l-20.4-20.4L300-297.9z"/>
			<path class="st3" d="M302.1-270L285-287.1l-9.6,9.6l17.1,17.1L302.1-270z M285-282.9l12.9,12.9l-5.4,5.4l-12.9-12.9L285-282.9z"
				/>
			<path class="st3" d="M399.6-292.5l-32.1-32.1l-9.6,9.6l32.1,32.1L399.6-292.5z M367.5-320.4l27.9,27.9l-5.4,5.4L362.1-315
				L367.5-320.4z"/>
			<path class="st3" d="M399.6-262.5L360-302.1l-24.6,24.6l9.6,9.6l15-15l5.4,5.4l-15,15l9.6,9.6l15-15l15,15L399.6-262.5z
				 M360-257.1l-5.4-5.4l15-15l-9.6-9.6l-15,15l-5.4-5.4l20.4-20.4l35.4,35.4l-5.4,5.4l-15-15L360-257.1z"/>
			<path class="st3" d="M384.6-247.5l-9.6-9.6l-15,15l-30-30l-9.6,9.6l39.6,39.6L384.6-247.5z M330-267.9l30,30l15-15l5.4,5.4
				L360-227.1l-35.4-35.4L330-267.9z"/>
			<path class="st3" d="M279.6-262.5l-9.6-9.6l-24.6,24.6l9.6,9.6L279.6-262.5z M270-267.9l5.4,5.4L255-242.1l-5.4-5.4L270-267.9z"
				/>
			<path class="st3" d="M339.6-322.5l-9.6-9.6l-9.6,9.6l9.6,9.6L339.6-322.5z M330-327.9l5.4,5.4l-5.4,5.4l-5.4-5.4L330-327.9z"/>
			<path class="st3" d="M317.1-255l-9.6-9.6l-9.6,9.6l9.6,9.6L317.1-255z M307.5-260.4l5.4,5.4l-5.4,5.4l-5.4-5.4L307.5-260.4z"/>
			<path class="st3" d="M332.1-240l-9.6-9.6l-15,15L285-257.1l-9.6,9.6l32.1,32.1L332.1-240z M285-252.9l22.5,22.5l15-15l5.4,5.4
				l-20.4,20.4l-27.9-27.9L285-252.9z"/>
			<path class="st3" d="M414.6-352.5l-9.6-9.6L372.9-330l9.6,9.6L414.6-352.5z M405-357.9l5.4,5.4l-27.9,27.9l-5.4-5.4L405-357.9z"
				/>
			<path class="st3" d="M347.1-225l-9.6-9.6l-25.1,25.1l9.6,9.6L347.1-225z M337.5-230.4l5.4,5.4L322-204.1l-5.4-5.4L337.5-230.4z"
				/>
			<path class="st3" d="M287.1-225L270-242.1L252.9-225l9.6,9.6l7.5-7.5l7.5,7.5L287.1-225z M262.5-219.6l-5.4-5.4l12.9-12.9
				l12.9,12.9l-5.4,5.4l-7.5-7.5L262.5-219.6z"/>
			<path class="st3" d="M399.6-367.4l-25.2-23.9L357.9-375l9.7,9.7l7.1-7.5l15.4,15.2L399.6-367.4z M367.5-369.7l-5.3-5.3l12.4-12.1
				l20.8,19.8l-5.4,5.5l-15.4-15.3L367.5-369.7z"/>
			<path class="st3" d="M294.6-397.5l-9.6-9.6l-9.6,9.6l9.6,9.6L294.6-397.5z M285-402.9l5.4,5.4l-5.4,5.4l-5.4-5.4L285-402.9z"/>
			<path class="st3" d="M226.6-299.5l-9.6-9.6l-31.6,31.6l9.6,9.6L226.6-299.5z M217-304.9l5.4,5.4L195-272.1l-5.4-5.4L217-304.9z"
				/>
			<path class="st3" d="M204.6-352.5l-9.6-9.6L162.9-330l9.6,9.6L204.6-352.5z M195-357.9l5.4,5.4l-27.9,27.9l-5.4-5.4L195-357.9z"
				/>
			<path class="st3" d="M212.1-315l-7.5-7.7l7.6-7.3l-9.7-9.1L177.9-315l17.1,17.1L212.1-315z M202.5-334.9l5.3,4.9l-7.4,7.2
				l7.5,7.8L195-302.1L182.1-315L202.5-334.9z"/>
			<path class="st3" d="M234.6-382l-9.6-9.6l-15,15l-22.5-22.5l-9.6,9.6l32.1,32.1L234.6-382z M187.5-394.9l22.5,22.5l15-15l5.4,5.4
				L210-361.6l-27.9-27.9L187.5-394.9z"/>
			<path class="st3" d="M219.6-232.5l-9.6-9.6l-7.5,7.7l-5.4-5.6l12.9-12.9l15,14.7l9.6-9.3L210-272.1l-39.6,39.6l9.6,9.6l7.5-7.5
				l15,15L219.6-232.5z M180-227.1l-5.4-5.4l35.4-35.4l20.4,20.4l-5.4,5.2l-15-14.8L192.9-240l9.6,9.9l7.5-7.8l5.4,5.4l-12.9,12.9
				l-15-15L180-227.1z"/>
			<path class="st3" d="M249.6-367.5l-9.6-9.6L207.9-345l9.6,9.6L249.6-367.5z M240-372.9l5.4,5.4l-27.9,27.9l-5.4-5.4L240-372.9z"
				/>
			<path class="st3" d="M249.6-337.5l-9.6-9.6l-24.6,24.6l9.6,9.6L249.6-337.5z M240-342.9l5.4,5.4L225-317.1l-5.4-5.4L240-342.9z"
				/>
			<path class="st3" d="M255-312.9l7.5,7.5l9.6-9.6L255-332.1l-24.6,24.6l9.6,9.6L255-312.9z M255-327.9l12.9,12.9l-5.4,5.4
				l-7.5-7.5l-15,15l-5.4-5.4L255-327.9z"/>
			<path class="st3" d="M249.1-263l-14.5-14.5l7.5-7.5l-9.6-9.6l-17.1,17.1l24.1,24.1L249.1-263z M232.5-290.4l5.4,5.4l-7.5,7.5
				l14.5,14.5l-5.4,5.4l-19.9-19.9L232.5-290.4z"/>
			<path class="st3" d="M272.1-285L255-302.1l-9.6,9.6l7.5,7.5l-7.5,7.5l9.6,9.6L272.1-285z M257.1-285l-7.5-7.5l5.4-5.4l12.9,12.9
				L255-272.1l-5.4-5.4L257.1-285z"/>
			<path class="st3" d="M249.6-232.5l-9.6-9.6l-16.6,16.6l9.6,9.6L249.6-232.5z M240-237.9l5.4,5.4L233-220.1l-5.4-5.4L240-237.9z"
				/>
			<path class="st3" d="M414.6-352.5l-9.6-9.6L372.9-330l9.6,9.6L414.6-352.5z M405-357.9l5.4,5.4l-27.9,27.9l-5.4-5.4L405-357.9z"
				/>
			<path class="st3" d="M219.6-397.5l-17.7-17.9l-9.5,11.1l17.6,17L219.6-397.5z M202.1-411l13.3,13.6l-5.5,5.8l-13.4-13L202.1-411z
				"/>
			<path class="st3" d="M339.6-172.5L293-219.9l-9.5,10.5l46.6,46.6L339.6-172.5z M293-215.6l42.3,43.1l-5.4,5.4l-42.4-42.4
				L293-215.6z"/>
			<path class="st3" d="M407.1-209.8l-9.6-9.3l-7,7l-14.9-15l-10.2,9.5l7,7.6l-7.3,7.5l17.2,17.1L407.1-209.8z M376.6-210l-7-7.4
				l5.8-5.5l15,15l7-7l5.3,5.2l-20.4,20.1l-13-12.9L376.6-210z"/>
			<path class="st3" d="M407.1-419.8l-9.6-9.3l-7,7l-14.9-15l-10.2,9.5l7,7.6l-7.3,7.5l17.2,17.1L407.1-419.8z M376.6-420l-7-7.4
				l5.8-5.5l15,15l7-7l5.3,5.2l-20.4,20.1l-13-12.9L376.6-420z"/>
			<path class="st3" d="M279.6-202.5l-9.6-9.6l-7.5,7.5l-15-15l-9.6,9.6l24.6,24.6L279.6-202.5z M247.5-215.4l15,15l7.5-7.5l5.4,5.4
				l-12.9,12.9L242.1-210L247.5-215.4z"/>
			<path class="st3" d="M369.7-187.5l-10.2-9.6l-7.2,7.4l-5.1-5.3l15-15l-9.6-9.6L327.8-195l24.5,24.6L369.7-187.5z M352.5-215.4
				l5.4,5.4l-15,15l9.4,9.7l7.3-7.6l5.8,5.4l-13.1,12.9L332-195L352.5-215.4z"/>
			<path class="st3" d="M347.1-435l-9.6-9.6l-25.1,25.1l9.6,9.6L347.1-435z M337.5-440.4l5.4,5.4L322-414.1l-5.4-5.4L337.5-440.4z"
				/>
			<path class="st3" d="M339.6-382.5L293-429.9l-9.5,10.5l46.6,46.6L339.6-382.5z M293-425.6l42.3,43.1l-5.4,5.4l-42.4-42.4
				L293-425.6z"/>
			<path class="st3" d="M234.6-412.5L217-430.1l-9.6,9.6l17.6,17.6L234.6-412.5z M217-425.9l13.4,13.4l-5.4,5.4l-13.4-13.4
				L217-425.9z"/>
			<path class="st3" d="M234.6-202.5L217-220.1l-9.6,9.6l17.6,17.6L234.6-202.5z M217-215.9l13.4,13.4l-5.4,5.4l-13.4-13.4
				L217-215.9z"/>
			<path class="st3" d="M436.6-299.5l-9.6-9.6l-31.6,31.6l9.6,9.6L436.6-299.5z M427-304.9l5.4,5.4L405-272.1l-5.4-5.4L427-304.9z"
				/>
			<path class="st3" d="M414.6-352.5l-9.6-9.6L372.9-330l9.6,9.6L414.6-352.5z M405-357.9l5.4,5.4l-27.9,27.9l-5.4-5.4L405-357.9z"
				/>
			<path class="st3" d="M422.1-315l-7.5-7.7l7.6-7.3l-9.7-9.1L387.9-315l17.1,17.1L422.1-315z M412.5-334.9l5.3,4.9l-7.4,7.2
				l7.5,7.8L405-302.1L392.1-315L412.5-334.9z"/>
			<path class="st3" d="M444.6-382l-9.6-9.6l-15,15l-22.5-22.5l-9.6,9.6l32.1,32.1L444.6-382z M397.5-394.9l22.5,22.5l15-15l5.4,5.4
				L420-361.6l-27.9-27.9L397.5-394.9z"/>
			<path class="st3" d="M429.6-232.5l-9.6-9.6l-7.5,7.7l-5.4-5.6l12.9-12.9l15,14.7l9.6-9.3L420-272.1l-39.6,39.6l9.6,9.6l7.5-7.5
				l15,15L429.6-232.5z M390-227.1l-5.4-5.4l35.4-35.4l20.4,20.4l-5.4,5.2l-15-14.8L402.9-240l9.6,9.9l7.5-7.8l5.4,5.4l-12.9,12.9
				l-15-15L390-227.1z"/>
			<path class="st3" d="M459.6-367.5l-9.6-9.6L417.9-345l9.6,9.6L459.6-367.5z M450-372.9l5.4,5.4l-27.9,27.9l-5.4-5.4L450-372.9z"
				/>
			<path class="st3" d="M429.6-397.5l-17.7-17.9l-9.5,11.1l17.6,17L429.6-397.5z M412.1-411l13.3,13.6l-5.5,5.8l-13.4-13L412.1-411z
				"/>
			<path class="st3" d="M444.6-412.5L427-430.1l-9.6,9.6l17.6,17.6L444.6-412.5z M427-425.9l13.4,13.4l-5.4,5.4l-13.4-13.4
				L427-425.9z"/>
			<path class="st3" d="M444.6-202.5L427-220.1l-9.6,9.6l17.6,17.6L444.6-202.5z M427-215.9l13.4,13.4l-5.4,5.4l-13.4-13.4
				L427-215.9z"/>
			<path class="st3" d="M279.6-412.5l-9.6-9.6l-7.5,7.5l-15-15l-9.6,9.6l24.6,24.6L279.6-412.5z M247.5-425.4l15,15l7.5-7.5l5.4,5.4
				l-12.9,12.9L242.1-420L247.5-425.4z"/>
			<path class="st3" d="M369.7-397.5l-10.2-9.6l-7.2,7.4l-5.1-5.3l15-15l-9.6-9.6L327.8-405l24.5,24.6L369.7-397.5z M352.5-425.4
				l5.4,5.4l-15,15l9.4,9.7l7.3-7.6l5.8,5.4l-13.1,12.9L332-405L352.5-425.4z"/>
			<path class="st3" d="M279.6-382.5l-9.6-9.6l-7.5,7.5L240-407.1l-9.6,9.6l32.1,32.1L279.6-382.5z M240-402.9l22.5,22.5l7.5-7.5
				l5.4,5.4l-12.9,12.9l-27.9-27.9L240-402.9z"/>
		</g>
		<g>
			<defs>
				<rect id="SVGID_7_" y="-420" width="210" height="210"/>
			</defs>
			<clipPath id="SVGID_8_">
				<use xlink:href="#SVGID_7_"  style="overflow:visible;"/>
			</clipPath>
			<path class="st4" d="M226.6-299.5l-9.6-9.6l-31.6,31.6l9.6,9.6L226.6-299.5z M217-304.9l5.4,5.4L195-272.1l-5.4-5.4L217-304.9z"
				/>
			<path class="st4" d="M212.1-315l-7.5-7.7l7.6-7.3l-9.7-9.1L177.9-315l17.1,17.1L212.1-315z M202.5-334.9l5.3,4.9l-7.4,7.2
				l7.5,7.8L195-302.1L182.1-315L202.5-334.9z"/>
			<path class="st4" d="M234.6-382l-9.6-9.6l-15,15l-22.5-22.5l-9.6,9.6l32.1,32.1L234.6-382z M187.5-394.9l22.5,22.5l15-15l5.4,5.4
				L210-361.6l-27.9-27.9L187.5-394.9z"/>
			<path class="st4" d="M219.6-232.5l-9.6-9.6l-7.5,7.7l-5.4-5.6l12.9-12.9l15,14.7l9.6-9.3L210-272.1l-39.6,39.6l9.6,9.6l7.5-7.5
				l15,15L219.6-232.5z M180-227.1l-5.4-5.4l35.4-35.4l20.4,20.4l-5.4,5.2l-15-14.8L192.9-240l9.6,9.9l7.5-7.8l5.4,5.4l-12.9,12.9
				l-15-15L180-227.1z"/>
			<path class="st4" d="M249.6-367.5l-9.6-9.6L207.9-345l9.6,9.6L249.6-367.5z M240-372.9l5.4,5.4l-27.9,27.9l-5.4-5.4L240-372.9z"
				/>
			<path class="st4" d="M219.6-397.5l-17.7-17.9l-9.5,11.1l17.6,17L219.6-397.5z M202.1-411l13.3,13.6l-5.5,5.8l-13.4-13L202.1-411z
				"/>
			<path class="st4" d="M234.6-412.5L217-430.1l-9.6,9.6l17.6,17.6L234.6-412.5z M217-425.9l13.4,13.4l-5.4,5.4l-13.4-13.4
				L217-425.9z"/>
			<path class="st4" d="M234.6-202.5L217-220.1l-9.6,9.6l17.6,17.6L234.6-202.5z M217-215.9l13.4,13.4l-5.4,5.4l-13.4-13.4
				L217-215.9z"/>
		</g>
	</g>
</pattern>
<rect class="st5" width="500" height="500"/>
</svg>
