<svg xmlns="http://www.w3.org/2000/svg" width="52" height="70" viewBox="0 0 52 70">
  <path fill="#FFC200" d="M30.9073484,0 C30.9073484,0 33.3124629,8.59667958 33.3124629,15.5726845 C33.3124629,22.2545244 28.9318834,27.6732477 22.2442445,27.6732477 C15.5248431,27.6732477 10.4694768,22.2545244 10.4694768,15.5726845 L10.5646323,14.4047232 C4.00971024,22.1911314 0.0818442696,32.2873667 0.0818442696,43.2546306 C0.0818442696,57.5959608 11.6979316,69.2120481 26.0392618,69.2120481 C40.380592,69.2120481 51.9968111,57.5959608 51.9968111,43.2546306 C51.9968111,25.7613076 43.5962415,10.1539612 30.9073484,0 Z M25.0993047,59.4791697 C19.3230235,59.4791697 14.6482791,54.9342428 14.6482791,49.2876472 C14.6482791,44.0303719 18.0599068,40.3361773 23.7640965,39.1625489 C29.5087471,37.9974872 35.4493759,35.2348147 38.7571496,30.7965094 C40.0260653,34.9838784 40.6748887,39.393189 40.6748887,43.9064853 C40.6748887,52.5002654 33.6930848,59.4791697 25.0993047,59.4791697 Z"/>
</svg>
