<svg xmlns="http://www.w3.org/2000/svg" xmlns:xlink="http://www.w3.org/1999/xlink" width="80" height="80" viewBox="0 0 80 80">
  <defs>
    <path id="web-development-a" d="M4,0 L61.3792344,0 L61.3792344,-4.4408921e-16 C63.5883734,-8.49901461e-16 65.3792344,1.790861 65.3792344,4 L65.3792344,44.0599189 L0,44.0599189 L0,4 L-4.4408921e-16,4 C-7.1463071e-16,1.790861 1.790861,-3.82769592e-17 4,-4.4408921e-16 Z"/>
  </defs>
  <g fill="none" fill-rule="evenodd" transform="translate(7 7)">
    <use fill="#42A6DD" xlink:href="#web-development-a"/>
    <path stroke="#444" stroke-width="3" d="M1.5,42.5599189 L63.8792344,42.5599189 L63.8792344,4 C63.8792344,2.61928813 62.7599463,1.5 61.3792344,1.5 L4,1.5 C2.61928813,1.5 1.5,2.61928813 1.5,4 L1.5,42.5599189 Z"/>
    <path fill="#E6F6FF" d="M19.8980279,21.1860699 L28.8365951,15.6341648 L28.8365951,18.895909 L23.0626138,22.1576533 L23.0626138,22.2686914 L28.8365951,25.5443154 L28.8365951,28.7921798 L19.8980279,23.226395 L19.8980279,21.1860699 Z M45.5339878,21.1860699 L36.5959661,15.6341648 L36.5959661,18.895909 L42.369595,22.1576533 L42.369595,22.2686914 L36.5959661,25.5443154 L36.5959661,28.7921798 L45.5339878,23.226395 L45.5339878,21.1860699 Z"/>
    <path fill="#E6E6E6" d="M0,44.0599189 L65.3792344,44.0599189 L65.3792344,53.4302205 L65.3792344,53.4302205 C65.3792344,54.53479 64.4838039,55.4302205 63.3792344,55.4302205 L2,55.4302205 L2,55.4302205 C0.8954305,55.4302205 1.3527075e-16,54.53479 0,53.4302205 L0,44.0599189 Z"/>
    <g transform="translate(18.477 55.43)">
      <path fill="#E6E6E6" d="M0,10.940029 L0,10.940029 L0,10.940029 C0,8.03783992 3.71754931,5.68515082 8.30337879,5.68515082 L8.30337879,5.68515082 L19.8003648,5.68515082 L19.8003648,5.68515082 C24.3861943,5.68515082 28.1037436,8.03783992 28.1037436,10.940029 L28.1037436,10.940029 L28.1037436,10.940029"/>
      <rect width="15.634" height="5.685" x="5.685" fill="#D8D8D8"/>
    </g>
  </g>
</svg>
