<svg xmlns="http://www.w3.org/2000/svg" width="80" height="80" viewBox="0 0 80 80">
  <g fill="none" fill-rule="evenodd" transform="translate(18 6)">
    <rect width="44.644" height="68.454" fill="#444" rx="4"/>
    <rect width="35.715" height="44.644" x="4" y="9" fill="#FFF" rx="1"/>
    <path fill="#72C472" fill-rule="nonzero" d="M1.39226211,6.22084847 C3.40891964,2.4594302 7.45298163,0 12.1166029,0 C15.1354098,0 17.8936041,1.28640505 20.0118199,3.10209538 C19.4065002,2.98495407 18.7455653,3.11660371 18.0803316,3.49731297 C16.5217611,4.39091848 16.0126262,6.9202036 18.0330452,8.19048828 C19.2947324,8.97904275 19.7436845,10.95325 19.7012342,12.1590532 C19.6598586,13.3667372 16.7684026,18.9132171 16.7684026,18.9132171 L13.9532497,9.24610345 C13.9532497,9.24610345 13.8562589,8.56797347 13.8562589,8.37237972 C13.8562589,8.12573815 13.9376667,7.82375 14.0897355,7.65126211 C14.1947865,7.53653885 14.3546468,7.29553941 14.5437924,7.29553941 L15.8780212,7.29553941 L15.8780212,6.22084847 L8.6238574,6.22084847 L8.6238574,7.29553941 L8.84873648,7.29553941 C9.08624317,7.29553941 9.31864509,7.61499129 9.54271815,7.8444378 C9.80762946,8.11794664 10.1410523,9.14696321 10.5448674,10.2144 L11.5996766,13.6891444 L9.3264366,18.9422337 L6.83234761,8.44330932 C6.83234761,8.44330932 6.90596394,7.72380374 7.05668935,7.60155765 C7.15502357,7.51746308 7.30601764,7.29553941 7.48065492,7.29553941 L7.54916647,7.29553941 L7.54916647,6.22084847 L1.39226211,6.22084847 Z M2.81434688,8.04540501 C2.81434688,8.04540501 2.22756563,7.29553941 1.60478224,7.29553941 L0.972863968,7.29553941 C0.363245536,8.63890307 0.0263299279,10.4430405 0.0263299279,12.0967212 C0.0263299279,17.0709281 3.07684014,21.3371825 7.42262161,23.1550222 L2.81434688,8.04540501 Z M22.5206859,6.12520098 C22.7504011,7.21520626 22.702846,8.53761345 22.2546999,9.99220763 C21.0857048,13.7767318 18.1920995,20.5854362 17.0717342,23.1789341 C21.2769998,21.301449 24.2068759,17.1093483 24.2068759,12.2361623 C24.2068759,10.0040292 23.5905407,7.91509873 22.5206859,6.12520098 Z M12.3608265,16.3447057 L9.26947798,23.8952156 C10.1824279,24.1139152 11.1351414,24.2332059 12.1163343,24.2332059 C13.1321859,24.2332059 14.1176775,24.1071984 15.0601814,23.8731844 L12.3608265,16.3447057 Z" transform="translate(10 19)"/>
    <circle cx="22.322" cy="61.013" r="2.976" fill="#5A5A5A"/>
  </g>
</svg>
