<svg xmlns="http://www.w3.org/2000/svg" width="2336" height="786" viewBox="0 0 2336 786">
  <g fill="none" fill-rule="evenodd">
    <g transform="translate(131 131)">
      <g stroke="#000" stroke-linecap="round" stroke-linejoin="round" stroke-width="80">
        <path stroke-dasharray="1 114" d="M266.5,461 C288.168046,461 309.008533,457.4568 328.473678,450.918184 C405.507028,425.041597 461,352.251338 461,266.5 C461,159.080616 373.919384,72 266.5,72 C244.356889,72 223.078023,75.7002702 203.248011,82.5162007 C126.879811,108.76532 72,181.223727 72,266.5 C72,373.919384 159.080616,461 266.5,461 Z" transform="rotate(-60 266.5 266.5)"/>
        <path d="M381.184819,423.607752 C429.571163,388.226654 461,331.033626 461,266.5 C461,159.080616 373.919384,72 266.5,72 C244.356889,72 223.078023,75.7002702 203.248011,82.5162007"/>
      </g>
      <path fill="#000" d="M319.68,360.496 C307.007937,367.984037 294.336063,371.728 281.664,371.728 C268.223933,371.728 257.184043,367.312044 248.544,358.48 C239.903957,349.647956 235.584,337.168081 235.584,321.04 L235.584,179.92 L273.024,179.92 L273.024,222.256 L317.088,222.256 L317.088,249.616 L273.024,249.616 L273.024,314.416 C273.024,330.544081 278.495945,338.608 289.44,338.608 C295.008028,338.608 302.207956,336.496021 311.04,332.272 L319.68,360.496 Z"/>
    </g>
    <path fill="#000" d="M823.810947,502.745252 C808.017438,512.07778 792.224165,516.743974 776.430656,516.743974 C759.679964,516.743974 745.920674,511.240258 735.152372,500.23266 C724.38407,489.225063 719,473.671082 719,453.570252 L719,277.688868 L765.662408,277.688868 L765.662408,330.453283 L820.580473,330.453283 L820.580473,364.552735 L765.662408,364.552735 L765.662408,445.314595 C765.662408,465.415426 772.48223,475.46569 786.122079,475.46569 C793.061652,475.46569 802.035102,472.833478 813.042699,467.568975 L823.810947,502.745252 Z M963.264956,472.235215 C972.477837,467.688599 980.793234,460.988423 988.211397,452.134486 L1015.49096,477.260398 C993.71506,503.343618 965.598249,516.385032 931.139683,516.385032 C911.278148,516.385032 893.750009,512.317068 878.554739,504.181018 C863.359468,496.044968 851.514514,484.618774 843.01952,469.902095 C834.524526,455.185416 830.277093,438.13586 830.277093,418.752917 C830.277093,399.609269 834.345057,382.67936 842.481108,367.962681 C850.617158,353.246001 862.162997,341.759985 877.118972,333.504287 C892.074947,325.248589 909.48344,321.120802 929.344975,321.120802 C955.667491,321.120802 976.964479,328.837969 993.23658,344.272535 C1009.50868,359.707101 1018.24284,380.585329 1019.43932,406.907844 L882.682567,445.673537 C887.229183,456.202543 893.989183,464.398295 902.962767,470.261037 C911.936352,476.123779 922.405378,479.055106 934.370157,479.055106 C944.420572,479.055106 954.052076,476.781832 963.264956,472.235215 Z M891.656107,372.449451 C882.323579,382.26057 877.537739,396.259152 877.298443,414.445618 L973.853733,386.807115 C966.196274,367.424171 951.599462,357.732845 930.062858,357.732845 C913.790758,357.732845 900.988635,362.638331 891.656107,372.449451 Z M1128.9217,362.040144 C1113.36749,362.040144 1100.74483,367.304568 1091.05336,377.833575 C1081.36189,388.362581 1076.51623,402.002225 1076.51623,418.752917 C1076.51623,435.9822 1081.36189,449.861136 1091.05336,460.390143 C1100.74483,470.919149 1113.36749,476.183573 1128.9217,476.183573 C1151.89408,476.183573 1169.1231,468.645875 1180.60929,453.570252 L1209.68356,477.619339 C1201.06892,490.062711 1189.70255,499.634391 1175.58411,506.334668 C1161.46567,513.034944 1145.07417,516.385032 1126.40911,516.385032 C1107.50476,516.385032 1090.6945,512.317068 1075.97782,504.181018 C1061.26114,496.044968 1049.83494,484.618774 1041.69889,469.902095 C1033.56284,455.185416 1029.49488,438.255506 1029.49488,419.111859 C1029.49488,399.728915 1033.62267,382.619537 1041.87836,367.78321 C1050.13406,352.946883 1061.62008,341.460866 1076.33676,333.324816 C1091.05344,325.188766 1107.98335,321.120802 1127.12699,321.120802 C1144.59557,321.120802 1160.20938,324.171775 1173.96887,330.273813 C1187.72837,336.37585 1198.91527,345.050185 1207.52991,356.297079 L1179.17353,383.217699 C1166.25156,369.099258 1149.50112,362.040144 1128.9217,362.040144 Z M1408.90135,340.683119 C1421.58401,353.964025 1427.92525,371.970748 1427.92525,394.70383 L1427.92525,514.590324 L1380.9039,514.590324 L1380.9039,408.343611 C1380.9039,394.943057 1377.07523,384.354386 1369.41777,376.577279 C1361.76031,368.800172 1351.35111,364.911677 1338.18985,364.911677 C1322.63564,365.150973 1310.3121,370.415397 1301.21887,380.705107 C1292.12563,390.994818 1287.57909,404.155878 1287.57909,420.188683 L1287.57909,514.590324 L1240.91668,514.590324 L1240.91668,248.255657 L1287.57909,248.255657 L1287.57909,359.168611 C1300.74034,334.042574 1323.83202,321.240451 1356.85482,320.76186 C1378.87001,320.76186 1396.21868,327.402213 1408.90135,340.683119 Z M1469.92662,322.556568 L1516.58902,322.556568 L1516.58902,514.590324 L1469.92662,514.590324 L1469.92662,322.556568 Z M1511.92278,247.896715 C1516.94799,253.161218 1519.46056,259.861395 1519.46056,267.997445 C1519.46056,275.8942 1516.94799,282.47473 1511.92278,287.739233 C1506.89758,293.003736 1500.55634,295.635948 1492.89888,295.635948 C1485.24142,295.635948 1478.90018,293.003736 1473.87497,287.739233 C1468.84977,282.47473 1466.3372,275.8942 1466.3372,267.997445 C1466.3372,259.861395 1468.84977,253.161218 1473.87497,247.896715 C1478.90018,242.632212 1485.24142,240 1492.89888,240 C1500.55634,240 1506.89758,242.632212 1511.92278,247.896715 Z M1679.37424,472.235215 C1688.58712,467.688599 1696.90252,460.988423 1704.32068,452.134486 L1731.60024,477.260398 C1709.82434,503.343618 1681.70753,516.385032 1647.24896,516.385032 C1627.38743,516.385032 1609.85929,512.317068 1594.66402,504.181018 C1579.46875,496.044968 1567.6238,484.618774 1559.1288,469.902095 C1550.63381,455.185416 1546.38637,438.13586 1546.38637,418.752917 C1546.38637,399.609269 1550.45434,382.67936 1558.59039,367.962681 C1566.72644,353.246001 1578.27228,341.759985 1593.22825,333.504287 C1608.18423,325.248589 1625.59272,321.120802 1645.45426,321.120802 C1671.77677,321.120802 1693.07376,328.837969 1709.34586,344.272535 C1725.61796,359.707101 1734.35212,380.585329 1735.5486,406.907844 L1598.79185,445.673537 C1603.33846,456.202543 1610.09846,464.398295 1619.07205,470.261037 C1628.04563,476.123779 1638.51466,479.055106 1650.47944,479.055106 C1660.52985,479.055106 1670.16136,476.781832 1679.37424,472.235215 Z M1607.76539,372.449451 C1598.43286,382.26057 1593.64702,396.259152 1593.40772,414.445618 L1689.96301,386.807115 C1682.30556,367.424171 1667.70874,357.732845 1646.17214,357.732845 C1629.90004,357.732845 1617.09792,362.638331 1607.76539,372.449451 Z M1848.08199,361.681203 C1838.15122,358.57036 1828.9983,357.014962 1820.62295,357.014962 C1812.7262,357.014962 1806.44478,358.390891 1801.77852,361.14279 C1797.11226,363.89469 1794.77916,368.142123 1794.77916,373.885217 C1794.77916,379.867607 1797.71049,384.473978 1803.57323,387.704469 C1809.43597,390.934959 1818.70854,394.34487 1831.3912,397.934304 C1844.79176,402.002329 1855.79919,406.01047 1864.41383,409.958848 C1873.02847,413.907225 1880.50635,419.769879 1886.84768,427.546986 C1893.18901,435.324093 1896.35963,445.553826 1896.35963,458.236493 C1896.35963,476.90155 1889.18087,491.25907 1874.82314,501.309485 C1860.4654,511.3599 1842.39885,516.385032 1820.62295,516.385032 C1805.78663,516.385032 1791.30946,514.051935 1777.19102,509.385671 C1763.07258,504.719407 1751.10798,498.079054 1741.29686,489.464412 L1757.44923,456.800727 C1766.06387,464.21889 1776.35343,470.021721 1788.31821,474.209394 C1800.28299,478.397067 1811.64936,480.490872 1822.41766,480.490872 C1831.0323,480.490872 1837.91195,478.995297 1843.0568,476.004102 C1848.20166,473.012907 1850.77405,468.526182 1850.77405,462.543792 C1850.77405,455.843516 1847.7829,450.818383 1841.80051,447.468245 C1835.81812,444.118107 1826.12679,440.409081 1812.72624,436.341055 C1799.80428,432.512326 1789.27543,428.743477 1781.13938,425.034395 C1773.00333,421.325313 1765.94421,415.701951 1759.96182,408.16414 C1753.97943,400.626328 1750.98828,390.755533 1750.98828,378.551458 C1750.98828,359.647106 1757.86793,345.229762 1771.62743,335.298995 C1785.38692,325.368228 1802.67577,320.402918 1823.49449,320.402918 C1836.17715,320.402918 1848.68016,322.197609 1861.00388,325.787042 C1873.32761,329.376476 1884.27522,334.401609 1893.84704,340.86259 L1876.97679,374.6031 C1867.64426,369.099301 1858.01275,364.792045 1848.08199,361.681203 Z M1909.97267,506.206841 C1909.97267,503.412333 1910.99564,500.992125 1913.04162,498.946146 C1915.0876,496.900167 1917.53276,495.877193 1920.37717,495.877193 C1923.22158,495.877193 1925.66674,496.900167 1927.71272,498.946146 C1929.7587,500.992125 1930.78167,503.437284 1930.78167,506.281694 C1930.78167,509.176006 1929.7587,511.646115 1927.71272,513.692094 C1925.71664,515.688171 1923.27148,516.686195 1920.37717,516.686195 C1917.43296,516.686195 1914.96285,515.688171 1912.96677,513.692094 C1910.97069,511.696017 1909.97267,509.200957 1909.97267,506.206841 Z M1971.50145,554.262164 L1954.65963,554.262164 L1954.65963,441.683963 L1971.50145,441.683963 L1971.50145,449.618331 C1978.1384,442.981374 1985.67348,439.662945 1994.10691,439.662945 C2004.1372,439.662945 2012.39584,443.355633 2018.8831,450.741119 C2025.47015,458.076703 2028.76363,467.333373 2028.76363,478.511406 C2028.76363,489.43993 2025.4951,498.546896 2018.95795,505.832579 C2012.4707,513.068359 2004.2869,516.686195 1994.40632,516.686195 C1985.87309,516.686195 1978.23821,513.267964 1971.50145,506.431399 L1971.50145,554.262164 Z M2011.54755,478.586259 C2011.54755,471.599988 2009.6513,465.911253 2005.85876,461.519883 C2002.01631,457.078611 1997.17589,454.858008 1991.33737,454.858008 C1985.14953,454.858008 1980.13446,457.003759 1976.29201,461.295325 C1972.44956,465.586891 1970.52836,471.225725 1970.52836,478.211996 C1970.52836,485.048561 1972.44956,490.687395 1976.29201,495.128667 C1980.08455,499.470136 1985.07467,501.640837 1991.26251,501.640837 C1997.10104,501.640837 2001.9165,499.445185 2005.70905,495.053815 C2009.6014,490.662445 2011.54755,485.173314 2011.54755,478.586259 Z M2046.57853,441.683963 L2063.42035,441.683963 L2063.42035,448.196133 C2066.51427,444.952507 2069.25883,442.731904 2071.65413,441.534258 C2074.09932,440.28671 2076.99359,439.662945 2080.33702,439.662945 C2084.77829,439.662945 2089.4191,441.110079 2094.25959,444.004391 L2086.54978,459.424012 C2083.35606,457.128523 2080.23723,455.980796 2077.19321,455.980796 C2068.01126,455.980796 2063.42035,462.917061 2063.42035,476.789798 L2063.42035,514.590324 L2046.57853,514.590324 L2046.57853,441.683963 Z M2100.47235,477.613176 C2100.47235,467.083868 2104.23989,458.126605 2111.77508,450.741119 C2119.31027,443.355633 2128.49209,439.662945 2139.32081,439.662945 C2150.19943,439.662945 2159.43115,443.380583 2167.01625,450.815971 C2174.50154,458.25136 2178.24413,467.383277 2178.24413,478.211996 C2178.24413,489.14052 2174.47659,498.297387 2166.94139,505.682874 C2159.3563,513.018458 2150.04973,516.686195 2139.0214,516.686195 C2128.09288,516.686195 2118.93601,512.943606 2111.55052,505.458316 C2104.16504,498.07283 2100.47235,488.791209 2100.47235,477.613176 Z M2117.68843,477.912586 C2117.68843,485.198268 2119.63458,490.961855 2123.52693,495.20352 C2127.51908,499.495086 2132.78366,501.640837 2139.32081,501.640837 C2145.90787,501.640837 2151.17244,499.520037 2155.11469,495.278372 C2159.05695,491.036708 2161.02804,485.372923 2161.02804,478.286849 C2161.02804,471.200774 2159.05695,465.53699 2155.11469,461.295325 C2151.12254,457.003759 2145.85796,454.858008 2139.32081,454.858008 C2132.88346,454.858008 2127.66879,457.003759 2123.67663,461.295325 C2119.68448,465.586891 2117.68843,471.125923 2117.68843,477.912586 Z"/>
  </g>
</svg>
