<svg xmlns="http://www.w3.org/2000/svg" width="1617" height="478" viewBox="0 0 1617 478">
  <path fill-rule="evenodd" d="M192.810947,334.745252 C177.017438,344.07778 161.224165,348.743974 145.430656,348.743974 C128.679964,348.743974 114.920674,343.240258 104.152372,332.23266 C93.3840702,321.225063 88,305.671082 88,285.570252 L88,109.688868 L134.662408,109.688868 L134.662408,162.453283 L189.580473,162.453283 L189.580473,196.552735 L134.662408,196.552735 L134.662408,277.314595 C134.662408,297.415426 141.48223,307.46569 155.122079,307.46569 C162.061652,307.46569 171.035102,304.833478 182.042699,299.568975 L192.810947,334.745252 Z M332.264956,304.235215 C341.477837,299.688599 349.793234,292.988423 357.211397,284.134486 L384.490959,309.260398 C362.71506,335.343618 334.598249,348.385032 300.139683,348.385032 C280.278148,348.385032 262.750009,344.317068 247.554739,336.181018 C232.359468,328.044968 220.514514,316.618774 212.01952,301.902095 C203.524526,287.185416 199.277093,270.13586 199.277093,250.752917 C199.277093,231.609269 203.345057,214.67936 211.481108,199.962681 C219.617158,185.246001 231.162997,173.759985 246.118972,165.504287 C261.074947,157.248589 278.48344,153.120802 298.344975,153.120802 C324.667491,153.120802 345.964479,160.837969 362.23658,176.272535 C378.50868,191.707101 387.242839,212.585329 388.439317,238.907844 L251.682567,277.673537 C256.229183,288.202543 262.989183,296.398295 271.962767,302.261037 C280.936352,308.123779 291.405378,311.055106 303.370157,311.055106 C313.420572,311.055106 323.052076,308.781832 332.264956,304.235215 Z M260.656107,204.449451 C251.323579,214.26057 246.537739,228.259152 246.298443,246.445618 L342.853733,218.807115 C335.196274,199.424171 320.599462,189.732845 299.062858,189.732845 C282.790758,189.732845 269.988635,194.638331 260.656107,204.449451 Z M497.921702,194.040144 C482.367488,194.040144 469.744835,199.304568 460.053363,209.833575 C450.361892,220.362581 445.516228,234.002225 445.516228,250.752917 C445.516228,267.9822 450.361892,281.861136 460.053363,292.390143 C469.744835,302.919149 482.367488,308.183573 497.921702,308.183573 C520.894079,308.183573 538.123104,300.645875 549.609292,285.570252 L578.683562,309.619339 C570.068921,322.062711 558.70255,331.634391 544.58411,338.334668 C530.46567,345.034944 514.074167,348.385032 495.409111,348.385032 C476.504759,348.385032 459.694495,344.317068 444.977816,336.181018 C430.261137,328.044968 418.834943,316.618774 410.698893,301.902095 C402.562843,287.185416 398.494879,270.255506 398.494879,251.111859 C398.494879,231.728915 402.622666,214.619537 410.878364,199.78321 C419.134062,184.946883 430.620078,173.460866 445.336758,165.324816 C460.053437,157.188766 476.983346,153.120802 496.126994,153.120802 C513.595573,153.120802 529.209376,156.171775 542.968873,162.273813 C556.72837,168.37585 567.915271,177.050185 576.529913,188.297079 L548.173526,215.217699 C535.251564,201.099258 518.501123,194.040144 497.921702,194.040144 Z M777.901348,172.683119 C790.584014,185.964025 796.925252,203.970748 796.925252,226.70383 L796.925252,346.590324 L749.903903,346.590324 L749.903903,240.343611 C749.903903,226.943057 746.075231,216.354386 738.417771,208.577279 C730.760312,200.800172 720.35111,196.911677 707.189852,196.911677 C691.635638,197.150973 679.3121,202.415397 670.218867,212.705107 C661.125635,222.994818 656.579087,236.155878 656.579087,252.188683 L656.579087,346.590324 L609.916679,346.590324 L609.916679,80.2556568 L656.579087,80.2556568 L656.579087,191.168611 C669.740344,166.042574 692.832023,153.240451 725.854815,152.76186 C747.87001,152.76186 765.218681,159.402213 777.901348,172.683119 Z M838.926617,154.556568 L885.589025,154.556568 L885.589025,346.590324 L838.926617,346.590324 L838.926617,154.556568 Z M880.922784,79.8967152 C885.947992,85.1612183 888.460558,91.8613945 888.460558,99.9974448 C888.460558,107.8942 885.947992,114.47473 880.922784,119.739233 C875.897576,125.003736 869.556338,127.635948 861.898879,127.635948 C854.24142,127.635948 847.900182,125.003736 842.874974,119.739233 C837.849767,114.47473 835.337201,107.8942 835.337201,99.9974448 C835.337201,91.8613945 837.849767,85.1612183 842.874974,79.8967152 C847.900182,74.6322121 854.24142,72 861.898879,72 C869.556338,72 875.897576,74.6322121 880.922784,79.8967152 Z M1048.37424,304.235215 C1057.58712,299.688599 1065.90252,292.988423 1073.32068,284.134486 L1100.60024,309.260398 C1078.82434,335.343618 1050.70753,348.385032 1016.24896,348.385032 C996.38743,348.385032 978.85929,344.317068 963.66402,336.181018 C948.46875,328.044968 936.623795,316.618774 928.128802,301.902095 C919.633808,287.185416 915.386375,270.13586 915.386375,250.752917 C915.386375,231.609269 919.454339,214.67936 927.590389,199.962681 C935.72644,185.246001 947.272279,173.759985 962.228254,165.504287 C977.184228,157.248589 994.592722,153.120802 1014.45426,153.120802 C1040.77677,153.120802 1062.07376,160.837969 1078.34586,176.272535 C1094.61796,191.707101 1103.35212,212.585329 1104.5486,238.907844 L967.791848,277.673537 C972.338465,288.202543 979.098464,296.398295 988.072049,302.261037 C997.045634,308.123779 1007.51466,311.055106 1019.47944,311.055106 C1029.52985,311.055106 1039.16136,308.781832 1048.37424,304.235215 Z M976.765388,204.449451 C967.43286,214.26057 962.64702,228.259152 962.407724,246.445618 L1058.96301,218.807115 C1051.30556,199.424171 1036.70874,189.732845 1015.17214,189.732845 C998.900039,189.732845 986.097917,194.638331 976.765388,204.449451 Z M1217.08199,193.681203 C1207.15122,190.57036 1197.9983,189.014962 1189.62295,189.014962 C1181.7262,189.014962 1175.44478,190.390891 1170.77852,193.14279 C1166.11226,195.89469 1163.77916,200.142123 1163.77916,205.885217 C1163.77916,211.867607 1166.71049,216.473978 1172.57323,219.704469 C1178.43597,222.934959 1187.70854,226.34487 1200.3912,229.934304 C1213.79176,234.002329 1224.79919,238.01047 1233.41383,241.958848 C1242.02847,245.907225 1249.50635,251.769879 1255.84768,259.546986 C1262.18901,267.324093 1265.35963,277.553826 1265.35963,290.236493 C1265.35963,308.90155 1258.18087,323.25907 1243.82314,333.309485 C1229.4654,343.3599 1211.39885,348.385032 1189.62295,348.385032 C1174.78663,348.385032 1160.30946,346.051935 1146.19102,341.385671 C1132.07258,336.719407 1120.10798,330.079054 1110.29686,321.464412 L1126.44923,288.800727 C1135.06387,296.21889 1145.35343,302.021721 1157.31821,306.209394 C1169.28299,310.397067 1180.64936,312.490872 1191.41766,312.490872 C1200.0323,312.490872 1206.91195,310.995297 1212.0568,308.004102 C1217.20166,305.012907 1219.77405,300.526182 1219.77405,294.543792 C1219.77405,287.843516 1216.7829,282.818383 1210.80051,279.468245 C1204.81812,276.118107 1195.12679,272.409081 1181.72624,268.341055 C1168.80428,264.512326 1158.27543,260.743477 1150.13938,257.034395 C1142.00333,253.325313 1134.94421,247.701951 1128.96182,240.16414 C1122.97943,232.626328 1119.98828,222.755533 1119.98828,210.551458 C1119.98828,191.647106 1126.86793,177.229762 1140.62743,167.298995 C1154.38692,157.368228 1171.67577,152.402918 1192.49449,152.402918 C1205.17715,152.402918 1217.68016,154.197609 1230.00388,157.787042 C1242.32761,161.376476 1253.27522,166.401609 1262.84704,172.86259 L1245.97679,206.6031 C1236.64426,201.099301 1227.01275,196.792045 1217.08199,193.681203 Z M1278.97267,338.206841 C1278.97267,335.412333 1279.99564,332.992125 1282.04162,330.946146 C1284.0876,328.900167 1286.53276,327.877193 1289.37717,327.877193 C1292.22158,327.877193 1294.66674,328.900167 1296.71272,330.946146 C1298.7587,332.992125 1299.78167,335.437284 1299.78167,338.281694 C1299.78167,341.176006 1298.7587,343.646115 1296.71272,345.692094 C1294.71664,347.688171 1292.27148,348.686195 1289.37717,348.686195 C1286.43296,348.686195 1283.96285,347.688171 1281.96677,345.692094 C1279.97069,343.696017 1278.97267,341.200957 1278.97267,338.206841 Z M1340.50145,386.262164 L1323.65963,386.262164 L1323.65963,273.683963 L1340.50145,273.683963 L1340.50145,281.618331 C1347.1384,274.981374 1354.67348,271.662945 1363.10691,271.662945 C1373.1372,271.662945 1381.39584,275.355633 1387.8831,282.741119 C1394.47015,290.076703 1397.76363,299.333373 1397.76363,310.511406 C1397.76363,321.43993 1394.4951,330.546896 1387.95795,337.832579 C1381.4707,345.068359 1373.2869,348.686195 1363.40632,348.686195 C1354.87309,348.686195 1347.23821,345.267964 1340.50145,338.431399 L1340.50145,386.262164 Z M1380.54755,310.586259 C1380.54755,303.599988 1378.6513,297.911253 1374.85876,293.519883 C1371.01631,289.078611 1366.17589,286.858008 1360.33737,286.858008 C1354.14953,286.858008 1349.13446,289.003759 1345.29201,293.295325 C1341.44956,297.586891 1339.52836,303.225725 1339.52836,310.211996 C1339.52836,317.048561 1341.44956,322.687395 1345.29201,327.128667 C1349.08455,331.470136 1354.07467,333.640837 1360.26251,333.640837 C1366.10104,333.640837 1370.9165,331.445185 1374.70905,327.053815 C1378.6014,322.662445 1380.54755,317.173314 1380.54755,310.586259 Z M1415.57853,273.683963 L1432.42035,273.683963 L1432.42035,280.196133 C1435.51427,276.952507 1438.25883,274.731904 1440.65413,273.534258 C1443.09932,272.28671 1445.99359,271.662945 1449.33702,271.662945 C1453.77829,271.662945 1458.4191,273.110079 1463.25959,276.004391 L1455.54978,291.424012 C1452.35606,289.128523 1449.23723,287.980796 1446.19321,287.980796 C1437.01126,287.980796 1432.42035,294.917061 1432.42035,308.789798 L1432.42035,346.590324 L1415.57853,346.590324 L1415.57853,273.683963 Z M1469.47235,309.613176 C1469.47235,299.083868 1473.23989,290.126605 1480.77508,282.741119 C1488.31027,275.355633 1497.49209,271.662945 1508.32081,271.662945 C1519.19943,271.662945 1528.43115,275.380583 1536.01625,282.815971 C1543.50154,290.25136 1547.24413,299.383277 1547.24413,310.211996 C1547.24413,321.14052 1543.47659,330.297387 1535.94139,337.682874 C1528.3563,345.018458 1519.04973,348.686195 1508.0214,348.686195 C1497.09288,348.686195 1487.93601,344.943606 1480.55052,337.458316 C1473.16504,330.07283 1469.47235,320.791209 1469.47235,309.613176 Z M1486.68843,309.912586 C1486.68843,317.198268 1488.63458,322.961855 1492.52693,327.20352 C1496.51908,331.495086 1501.78366,333.640837 1508.32081,333.640837 C1514.90787,333.640837 1520.17244,331.520037 1524.11469,327.278372 C1528.05695,323.036708 1530.02804,317.372923 1530.02804,310.286849 C1530.02804,303.200774 1528.05695,297.53699 1524.11469,293.295325 C1520.12254,289.003759 1514.85796,286.858008 1508.32081,286.858008 C1501.88346,286.858008 1496.66879,289.003759 1492.67663,293.295325 C1488.68448,297.586891 1486.68843,303.125923 1486.68843,309.912586 Z"/>
</svg>
