<svg xmlns="http://www.w3.org/2000/svg" width="60" height="60" viewBox="0 0 60 60">
  <defs>
    <linearGradient id="clock-a" x1="20.232%" x2="73.593%" y1="7.418%" y2="100%">
      <stop offset="0%" stop-color="#fc5b63"/>
      <stop offset="100%" stop-color="#fc5b63"/>
    </linearGradient>
  </defs>
  <g fill="url(#clock-a)" transform="translate(1 1)">
    <path d="M28.9373864,0 C12.9813187,0 0,12.9813187 0,28.9373864 C0,44.893454 12.9813187,57.8747727 28.9373864,57.8747727 C44.893454,57.8747727 57.8747727,44.893454 57.8747727,28.9373864 C57.8747727,12.9813187 44.893454,0 28.9373864,0 Z M28.9373864,51.7173877 C16.3766069,51.7173877 6.15678932,41.4987615 6.15678932,28.9373864 C6.15678932,16.3760112 16.3766069,6.15738499 28.9373864,6.15738499 C41.4981658,6.15738499 51.7179834,16.3760112 51.7179834,28.9373864 C51.7179834,41.4987615 41.4981658,51.7173877 28.9373864,51.7173877 Z"/>
    <path d="M44.0184227,28.0438895 L31.0138732,28.0438895 L31.0138732,12.4076937 C31.0138732,11.0918705 29.9470379,10.0250352 28.6312147,10.0250352 C27.3153916,10.0250352 26.2485563,11.0918705 26.2485563,12.4076937 L26.2485563,30.4265479 C26.2485563,31.742371 27.3153916,32.8092063 28.6312147,32.8092063 L44.0184227,32.8092063 C45.3342458,32.8092063 46.4010811,31.742371 46.4010811,30.4265479 C46.4010811,29.1107248 45.3342458,28.0438895 44.0184227,28.0438895 Z"/>
  </g>
</svg>
