<svg xmlns="http://www.w3.org/2000/svg" width="60" height="60" viewBox="0 0 60 60">
  <defs>
    <linearGradient id="coding-a" x1="-10.098%" x2="93.813%" y1="-8.082%" y2="100%">
      <stop offset="0%" stop-color="#6BB55B"/>
      <stop offset="100%" stop-color="#008F68"/>
    </linearGradient>
  </defs>
  <g fill="none" transform="translate(3 6)">
    <path fill="url(#coding-a)" d="M50.0305017,0.12907332 L3.19873817,0.12907332 C1.43460041,0.12907332 0,1.5640809 0,3.32794721 L0,45.2864125 C0,47.0502788 1.43460041,48.4851507 3.19873817,48.4851507 L50.0306374,48.4851507 C51.7942323,48.4851507 53.2288327,47.0502788 53.2288327,45.2864125 L53.2288327,3.32794721 C53.2292398,1.56421662 51.7940965,0.12907332 50.0305017,0.12907332 Z M40.3859695,5.50061356 C40.3859695,4.84832505 40.9147494,4.31940946 41.5669022,4.31940946 L42.7481063,4.31940946 C43.4006662,4.31940946 43.9290389,4.84818933 43.9290389,5.50061356 L43.9290389,6.83925726 C43.9290389,7.49154577 43.4002591,8.02032564 42.7481063,8.02032564 L41.5669022,8.02032564 C40.9147494,8.02032564 40.3859695,7.49154577 40.3859695,6.83925726 L40.3859695,5.50061356 Z M34.8936351,5.50061356 C34.8936351,4.84832505 35.4226864,4.31940946 36.0748392,4.31940946 L37.2557718,4.31940946 C37.9079246,4.31940946 38.436976,4.84818933 38.436976,5.50061356 L38.436976,6.83925726 C38.436976,7.49154577 37.9079246,8.02032564 37.2557718,8.02032564 L36.0748392,8.02032564 C35.4226864,8.02032564 34.8936351,7.49154577 34.8936351,6.83925726 L34.8936351,5.50061356 Z M49.3902926,44.6464748 L3.83854009,44.6464748 L3.83854009,11.5684168 L49.3902926,11.5684168 L49.3902926,44.6464748 L49.3902926,44.6464748 Z M49.4213733,6.83925726 C49.4213733,7.49154577 48.8925935,8.02032564 48.2404407,8.02032564 L47.0592366,8.02032564 C46.4065409,8.02032564 45.8781682,7.49154577 45.8781682,6.83925726 L45.8781682,5.50061356 C45.8781682,4.84832505 46.4069481,4.31940946 47.0592366,4.31940946 L48.2404407,4.31940946 C48.8927292,4.31940946 49.4213733,4.84818933 49.4213733,5.50061356 L49.4213733,6.83925726 Z"/>
    <path fill="#008F68" d="M11.4259069 29.3548831L19.9879061 33.3364761C20.2092716 33.4389476 20.4448881 33.4909298 20.6885123 33.4909298 21.0058345 33.4909298 21.315149 33.4008092 21.5840178 33.2297972 22.0654301 32.9221114 22.3530288 32.3978104 22.3530288 31.8272276L22.3530288 31.7835246C22.3530288 31.1385651 21.9750381 30.5462665 21.3899328 30.2745475L16.0349509 27.7864591 21.3899328 25.2980992C21.9750381 25.0261087 22.3530288 24.4339459 22.3530288 23.7892579L22.3530288 23.745962C22.3530288 23.1745649 22.0654301 22.6499924 21.5840178 22.3433924 21.3178635 22.1733305 21.0077346 22.0833456 20.6875622 22.0833456 20.4461096 22.0833456 20.2039784 22.1364136 19.9872275 22.2371207L11.4257711 26.2183065C10.8412088 26.4902969 10.4634895 27.0827313 10.4634895 27.7271478L10.4634895 27.8461775C10.4633538 28.489644 10.8408016 29.0818069 11.4259069 29.3548831zM22.4293056 37.4646508C22.741606 37.892045 23.2439197 38.1473414 23.772971 38.1473414L23.8158597 38.1473414C24.5422534 38.1473414 25.1786623 37.6823517 25.4000278 36.9913819L31.0400297 19.5154516C31.2018124 19.011102 31.112099 18.4543631 30.7996628 18.0261545 30.4873624 17.5986246 29.9850487 17.3434639 29.4558616 17.3434639L29.4131086 17.3434639C28.6864435 17.3434639 28.0493561 17.8083178 27.8279906 18.4992876L22.1874458 35.9765752C22.0268845 36.4816034 22.1172766 37.037528 22.4293056 37.4646508zM30.8758039 23.7891222C30.8758039 24.4331315 31.2535232 25.0254301 31.8387641 25.2987778L37.1937461 27.7864591 31.8387641 30.2742761C31.2537946 30.5462665 30.8758039 31.1385651 30.8758039 31.7832531L30.8758039 31.8269562C30.8758039 32.3976747 31.1631311 32.9219757 31.6450863 33.2297972 31.913005 33.4005377 32.2224553 33.4909298 32.5401847 33.4909298 32.7835374 33.4909298 33.0190182 33.4389476 33.2418766 33.3359332L41.803333 29.354476C42.3878953 29.0818069 42.7656146 28.489644 42.7656146 27.8459061L42.7656146 27.7268763C42.7656146 27.0824598 42.3878953 26.4900255 41.8027901 26.218035L33.2413337 22.2368492C33.0253972 22.1364136 32.7835374 22.0833456 32.5420848 22.0833456 32.2224553 22.0833456 31.9119193 22.1730591 31.6457649 22.3428495 31.1638098 22.6499924 30.8762111 23.1744291 30.8762111 23.7458263L30.8762111 23.7889864 30.8758039 23.7889864 30.8758039 23.7891222z"/>
  </g>
</svg>
