<svg xmlns="http://www.w3.org/2000/svg" width="60" height="60" viewBox="0 0 60 60">
  <defs>
    <linearGradient id="experience-a" x1="15.377%" y1="0%" y2="100%">
      <stop offset="0%" stop-color="#6BB55B"/>
      <stop offset="100%" stop-color="#008F68"/>
    </linearGradient>
  </defs>
  <path fill="url(#experience-a)" d="M35.8301812,39.8595458 L26.1428975,21.7261001 L26.1428975,6.06278691 L28.4892103,6.06278691 C30.1632836,6.06278691 31.5204993,4.70557122 31.5204993,3.03139346 C31.5204993,1.3572157 30.1632836,0 28.4891059,0 L8.18275783,0 L8.18275783,0.00198362294 C6.54459849,0.0433265011 5.22893447,1.3832116 5.22893447,3.03139346 C5.22893447,4.67957532 6.54449409,6.01956481 8.18275783,6.06090769 L8.18275783,6.06289132 L10.6065363,6.06289132 L10.6065363,21.7261001 L0.91914823,39.859859 C-0.344941589,42.2255903 -0.273426762,45.1249163 1.10592199,47.4261277 C2.48568835,49.7272347 5.00927433,51.1565916 7.69186335,51.1565916 L29.057466,51.1565916 C31.7399507,51.1565916 34.2635366,49.7273391 35.6430942,47.4265453 C37.0227562,45.1252295 37.094271,42.2257991 35.8301812,39.8595458 Z M33.8525091,46.3526745 C32.8479607,48.0277918 31.0108126,49.0685675 29.0575704,49.0685675 L7.69186335,49.0685675 C5.73872557,49.0685675 3.90136872,48.0280006 2.8967159,46.3524657 C1.89237628,44.6769307 1.84038448,42.5660427 2.76068113,40.8436315 L12.6943516,22.2487325 L12.6943516,6.06278691 L24.0546646,6.06278691 L24.0546646,22.2487325 L33.9882307,40.8434227 C34.9089449,42.5663559 34.8569531,44.6772439 33.8525091,46.3526745 Z M18.778854,25.2281342 C20.0771874,24.8565703 20.8287717,23.5030086 20.4571034,22.2044664 C20.0856439,20.9059242 18.7319778,20.1544443 17.4339576,20.5260082 C16.135311,20.8975721 15.3838311,22.2511337 15.7552906,23.5497803 C16.1267501,24.8481138 17.4805206,25.5996981 18.778854,25.2281342 Z M22.0359628,13.6949328 C23.122675,13.3839216 23.7517967,12.2510641 23.4408899,11.1645607 C23.1297743,10.0778485 21.9968124,9.44904008 20.9099958,9.75994687 C19.8235969,10.0708537 19.1947884,11.2036068 19.5052776,12.2904233 C19.8163932,13.3770311 20.9494595,14.0058396 22.0359628,13.6949328 Z M24.9722468,28.5887046 L11.777187,28.5887046 L4.60242283,42.0191891 C4.02236972,43.1045441 4.05483849,44.4148836 4.68761421,45.4705887 C5.32059873,46.5261893 6.46086872,47.1722239 7.69175895,47.1722239 L29.0573616,47.1722239 C30.2881475,47.1722239 31.4286263,46.5261893 32.0615064,45.4705887 C32.6944909,44.414988 32.7266465,43.1046485 32.1466978,42.0191891 L24.9722468,28.5887046 Z" transform="translate(12 4)"/>
</svg>
