<svg xmlns="http://www.w3.org/2000/svg" width="2015" height="469" viewBox="0 0 2015 469">
  <g fill="none" fill-rule="evenodd" transform="translate(-33 -32)">
    <g stroke="#FFF" stroke-linecap="round" stroke-linejoin="round" stroke-width="80">
      <path stroke-dasharray="1 114" d="M266.5,461 C288.168046,461 309.008533,457.4568 328.473678,450.918184 C405.507028,425.041597 461,352.251338 461,266.5 C461,159.080616 373.919384,72 266.5,72 C244.356889,72 223.078023,75.7002702 203.248011,82.5162007 C126.879811,108.76532 72,181.223727 72,266.5 C72,373.919384 159.080616,461 266.5,461 Z" transform="rotate(-60 266.5 266.5)"/>
      <path d="M381.184819,423.607752 C429.571163,388.226654 461,331.033626 461,266.5 C461,159.080616 373.919384,72 266.5,72 C244.356889,72 223.078023,75.7002702 203.248011,82.5162007"/>
    </g>
    <path fill="#FFF" d="M319.68 360.496C307.007937 367.984037 294.336063 371.728 281.664 371.728 268.223933 371.728 257.184043 367.312044 248.544 358.48 239.903957 349.647956 235.584 337.168081 235.584 321.04L235.584 179.92 273.024 179.92 273.024 222.256 317.088 222.256 317.088 249.616 273.024 249.616 273.024 314.416C273.024 330.544081 278.495945 338.608 289.44 338.608 295.008028 338.608 302.207956 336.496021 311.04 332.272L319.68 360.496zM692.810947 371.745252C677.017438 381.07778 661.224165 385.743974 645.430656 385.743974 628.679964 385.743974 614.920674 380.240258 604.152372 369.23266 593.38407 358.225063 588 342.671082 588 322.570252L588 146.688868 634.662408 146.688868 634.662408 199.453283 689.580473 199.453283 689.580473 233.552735 634.662408 233.552735 634.662408 314.314595C634.662408 334.415426 641.48223 344.46569 655.122079 344.46569 662.061652 344.46569 671.035102 341.833478 682.042699 336.568975L692.810947 371.745252zM832.264956 341.235215C841.477837 336.688599 849.793234 329.988423 857.211397 321.134486L884.490959 346.260398C862.71506 372.343618 834.598249 385.385032 800.139683 385.385032 780.278148 385.385032 762.750009 381.317068 747.554739 373.181018 732.359468 365.044968 720.514514 353.618774 712.01952 338.902095 703.524526 324.185416 699.277093 307.13586 699.277093 287.752917 699.277093 268.609269 703.345057 251.67936 711.481108 236.962681 719.617158 222.246001 731.162997 210.759985 746.118972 202.504287 761.074947 194.248589 778.48344 190.120802 798.344975 190.120802 824.667491 190.120802 845.964479 197.837969 862.23658 213.272535 878.50868 228.707101 887.242839 249.585329 888.439317 275.907844L751.682567 314.673537C756.229183 325.202543 762.989183 333.398295 771.962767 339.261037 780.936352 345.123779 791.405378 348.055106 803.370157 348.055106 813.420572 348.055106 823.052076 345.781832 832.264956 341.235215zM760.656107 241.449451C751.323579 251.26057 746.537739 265.259152 746.298443 283.445618L842.853733 255.807115C835.196274 236.424171 820.599462 226.732845 799.062858 226.732845 782.790758 226.732845 769.988635 231.638331 760.656107 241.449451zM997.921702 231.040144C982.367488 231.040144 969.744835 236.304568 960.053363 246.833575 950.361892 257.362581 945.516228 271.002225 945.516228 287.752917 945.516228 304.9822 950.361892 318.861136 960.053363 329.390143 969.744835 339.919149 982.367488 345.183573 997.921702 345.183573 1020.89408 345.183573 1038.1231 337.645875 1049.60929 322.570252L1078.68356 346.619339C1070.06892 359.062711 1058.70255 368.634391 1044.58411 375.334668 1030.46567 382.034944 1014.07417 385.385032 995.409111 385.385032 976.504759 385.385032 959.694495 381.317068 944.977816 373.181018 930.261137 365.044968 918.834943 353.618774 910.698893 338.902095 902.562843 324.185416 898.494879 307.255506 898.494879 288.111859 898.494879 268.728915 902.622666 251.619537 910.878364 236.78321 919.134062 221.946883 930.620078 210.460866 945.336758 202.324816 960.053437 194.188766 976.983346 190.120802 996.126994 190.120802 1013.59557 190.120802 1029.20938 193.171775 1042.96887 199.273813 1056.72837 205.37585 1067.91527 214.050185 1076.52991 225.297079L1048.17353 252.217699C1035.25156 238.099258 1018.50112 231.040144 997.921702 231.040144zM1277.90135 209.683119C1290.58401 222.964025 1296.92525 240.970748 1296.92525 263.70383L1296.92525 383.590324 1249.9039 383.590324 1249.9039 277.343611C1249.9039 263.943057 1246.07523 253.354386 1238.41777 245.577279 1230.76031 237.800172 1220.35111 233.911677 1207.18985 233.911677 1191.63564 234.150973 1179.3121 239.415397 1170.21887 249.705107 1161.12563 259.994818 1156.57909 273.155878 1156.57909 289.188683L1156.57909 383.590324 1109.91668 383.590324 1109.91668 117.255657 1156.57909 117.255657 1156.57909 228.168611C1169.74034 203.042574 1192.83202 190.240451 1225.85482 189.76186 1247.87001 189.76186 1265.21868 196.402213 1277.90135 209.683119zM1338.92662 191.556568L1385.58902 191.556568 1385.58902 383.590324 1338.92662 383.590324 1338.92662 191.556568zM1380.92278 116.896715C1385.94799 122.161218 1388.46056 128.861395 1388.46056 136.997445 1388.46056 144.8942 1385.94799 151.47473 1380.92278 156.739233 1375.89758 162.003736 1369.55634 164.635948 1361.89888 164.635948 1354.24142 164.635948 1347.90018 162.003736 1342.87497 156.739233 1337.84977 151.47473 1335.3372 144.8942 1335.3372 136.997445 1335.3372 128.861395 1337.84977 122.161218 1342.87497 116.896715 1347.90018 111.632212 1354.24142 109 1361.89888 109 1369.55634 109 1375.89758 111.632212 1380.92278 116.896715zM1548.37424 341.235215C1557.58712 336.688599 1565.90252 329.988423 1573.32068 321.134486L1600.60024 346.260398C1578.82434 372.343618 1550.70753 385.385032 1516.24896 385.385032 1496.38743 385.385032 1478.85929 381.317068 1463.66402 373.181018 1448.46875 365.044968 1436.6238 353.618774 1428.1288 338.902095 1419.63381 324.185416 1415.38637 307.13586 1415.38637 287.752917 1415.38637 268.609269 1419.45434 251.67936 1427.59039 236.962681 1435.72644 222.246001 1447.27228 210.759985 1462.22825 202.504287 1477.18423 194.248589 1494.59272 190.120802 1514.45426 190.120802 1540.77677 190.120802 1562.07376 197.837969 1578.34586 213.272535 1594.61796 228.707101 1603.35212 249.585329 1604.5486 275.907844L1467.79185 314.673537C1472.33846 325.202543 1479.09846 333.398295 1488.07205 339.261037 1497.04563 345.123779 1507.51466 348.055106 1519.47944 348.055106 1529.52985 348.055106 1539.16136 345.781832 1548.37424 341.235215zM1476.76539 241.449451C1467.43286 251.26057 1462.64702 265.259152 1462.40772 283.445618L1558.96301 255.807115C1551.30556 236.424171 1536.70874 226.732845 1515.17214 226.732845 1498.90004 226.732845 1486.09792 231.638331 1476.76539 241.449451zM1717.08199 230.681203C1707.15122 227.57036 1697.9983 226.014962 1689.62295 226.014962 1681.7262 226.014962 1675.44478 227.390891 1670.77852 230.14279 1666.11226 232.89469 1663.77916 237.142123 1663.77916 242.885217 1663.77916 248.867607 1666.71049 253.473978 1672.57323 256.704469 1678.43597 259.934959 1687.70854 263.34487 1700.3912 266.934304 1713.79176 271.002329 1724.79919 275.01047 1733.41383 278.958848 1742.02847 282.907225 1749.50635 288.769879 1755.84768 296.546986 1762.18901 304.324093 1765.35963 314.553826 1765.35963 327.236493 1765.35963 345.90155 1758.18087 360.25907 1743.82314 370.309485 1729.4654 380.3599 1711.39885 385.385032 1689.62295 385.385032 1674.78663 385.385032 1660.30946 383.051935 1646.19102 378.385671 1632.07258 373.719407 1620.10798 367.079054 1610.29686 358.464412L1626.44923 325.800727C1635.06387 333.21889 1645.35343 339.021721 1657.31821 343.209394 1669.28299 347.397067 1680.64936 349.490872 1691.41766 349.490872 1700.0323 349.490872 1706.91195 347.995297 1712.0568 345.004102 1717.20166 342.012907 1719.77405 337.526182 1719.77405 331.543792 1719.77405 324.843516 1716.7829 319.818383 1710.80051 316.468245 1704.81812 313.118107 1695.12679 309.409081 1681.72624 305.341055 1668.80428 301.512326 1658.27543 297.743477 1650.13938 294.034395 1642.00333 290.325313 1634.94421 284.701951 1628.96182 277.16414 1622.97943 269.626328 1619.98828 259.755533 1619.98828 247.551458 1619.98828 228.647106 1626.86793 214.229762 1640.62743 204.298995 1654.38692 194.368228 1671.67577 189.402918 1692.49449 189.402918 1705.17715 189.402918 1717.68016 191.197609 1730.00388 194.787042 1742.32761 198.376476 1753.27522 203.401609 1762.84704 209.86259L1745.97679 243.6031C1736.64426 238.099301 1727.01275 233.792045 1717.08199 230.681203zM1778.97267 375.206841C1778.97267 372.412333 1779.99564 369.992125 1782.04162 367.946146 1784.0876 365.900167 1786.53276 364.877193 1789.37717 364.877193 1792.22158 364.877193 1794.66674 365.900167 1796.71272 367.946146 1798.7587 369.992125 1799.78167 372.437284 1799.78167 375.281694 1799.78167 378.176006 1798.7587 380.646115 1796.71272 382.692094 1794.71664 384.688171 1792.27148 385.686195 1789.37717 385.686195 1786.43296 385.686195 1783.96285 384.688171 1781.96677 382.692094 1779.97069 380.696017 1778.97267 378.200957 1778.97267 375.206841zM1840.50145 423.262164L1823.65963 423.262164 1823.65963 310.683963 1840.50145 310.683963 1840.50145 318.618331C1847.1384 311.981374 1854.67348 308.662945 1863.10691 308.662945 1873.1372 308.662945 1881.39584 312.355633 1887.8831 319.741119 1894.47015 327.076703 1897.76363 336.333373 1897.76363 347.511406 1897.76363 358.43993 1894.4951 367.546896 1887.95795 374.832579 1881.4707 382.068359 1873.2869 385.686195 1863.40632 385.686195 1854.87309 385.686195 1847.23821 382.267964 1840.50145 375.431399L1840.50145 423.262164zM1880.54755 347.586259C1880.54755 340.599988 1878.6513 334.911253 1874.85876 330.519883 1871.01631 326.078611 1866.17589 323.858008 1860.33737 323.858008 1854.14953 323.858008 1849.13446 326.003759 1845.29201 330.295325 1841.44956 334.586891 1839.52836 340.225725 1839.52836 347.211996 1839.52836 354.048561 1841.44956 359.687395 1845.29201 364.128667 1849.08455 368.470136 1854.07467 370.640837 1860.26251 370.640837 1866.10104 370.640837 1870.9165 368.445185 1874.70905 364.053815 1878.6014 359.662445 1880.54755 354.173314 1880.54755 347.586259zM1915.57853 310.683963L1932.42035 310.683963 1932.42035 317.196133C1935.51427 313.952507 1938.25883 311.731904 1940.65413 310.534258 1943.09932 309.28671 1945.99359 308.662945 1949.33702 308.662945 1953.77829 308.662945 1958.4191 310.110079 1963.25959 313.004391L1955.54978 328.424012C1952.35606 326.128523 1949.23723 324.980796 1946.19321 324.980796 1937.01126 324.980796 1932.42035 331.917061 1932.42035 345.789798L1932.42035 383.590324 1915.57853 383.590324 1915.57853 310.683963zM1969.47235 346.613176C1969.47235 336.083868 1973.23989 327.126605 1980.77508 319.741119 1988.31027 312.355633 1997.49209 308.662945 2008.32081 308.662945 2019.19943 308.662945 2028.43115 312.380583 2036.01625 319.815971 2043.50154 327.25136 2047.24413 336.383277 2047.24413 347.211996 2047.24413 358.14052 2043.47659 367.297387 2035.94139 374.682874 2028.3563 382.018458 2019.04973 385.686195 2008.0214 385.686195 1997.09288 385.686195 1987.93601 381.943606 1980.55052 374.458316 1973.16504 367.07283 1969.47235 357.791209 1969.47235 346.613176zM1986.68843 346.912586C1986.68843 354.198268 1988.63458 359.961855 1992.52693 364.20352 1996.51908 368.495086 2001.78366 370.640837 2008.32081 370.640837 2014.90787 370.640837 2020.17244 368.520037 2024.11469 364.278372 2028.05695 360.036708 2030.02804 354.372923 2030.02804 347.286849 2030.02804 340.200774 2028.05695 334.53699 2024.11469 330.295325 2020.12254 326.003759 2014.85796 323.858008 2008.32081 323.858008 2001.88346 323.858008 1996.66879 326.003759 1992.67663 330.295325 1988.68448 334.586891 1986.68843 340.125923 1986.68843 346.912586z"/>
  </g>
</svg>
