<svg xmlns="http://www.w3.org/2000/svg" width="60" height="60" viewBox="0 0 60 60">
  <defs>
    <linearGradient id="logo-svg-a" x1="15.995%" x2="93.465%" y1="13.691%" y2="100%">
      <stop offset="0%" stop-color="#FF794C"/>
      <stop offset="100%" stop-color="#FD6868"/>
    </linearGradient>
  </defs>
  <path fill="url(#logo-svg-a)" d="M35.7834171,3.61463729 C37.8737159,4.73277701 39.8105258,6.16597267 41.5341622,7.88960903 C46.129417,12.4848639 48.6602239,18.5946682 48.6602239,25.0935642 C48.6602239,25.8809665 48.0219386,26.5191567 47.2346314,26.5191567 C46.4473242,26.5191567 45.8090389,25.8809665 45.8090389,25.0935642 C45.8090389,13.9149232 37.2246911,4.70512052 26.3020865,3.70606529 C26.0502318,4.10912781 25.6038313,4.3780896 25.0935642,4.3780896 L23.5666596,4.3780896 C23.0563926,4.3780896 22.609897,4.10912781 22.3581374,3.70606529 C11.4355328,4.70512052 2.85118499,13.9149232 2.85118499,25.0935642 C2.85118499,25.8809665 2.21289971,26.5191567 1.4255925,26.5191567 C0.63828528,26.5191567 0,25.8809665 0,25.0935642 C0,18.5946682 2.53080684,12.4848639 7.12606169,7.88970407 C8.84969806,6.16597267 10.786508,4.73277701 12.8768068,3.61463729 L3.84824439,3.61463729 C3.44641738,4.08156636 2.85194531,4.3780896 2.1890448,4.3780896 C0.982043151,4.3780896 0,3.39614148 0,2.1890448 C0,1.68105867 0.174397482,1.21346433 0.465788588,0.84166981 C0.866760238,0.329882104 1.48993424,0 2.1890448,0 C2.85194531,0 3.44651242,0.296523239 3.84824439,0.763452302 L22.3047252,0.763452302 C22.5432743,0.309828769 23.0184718,0 23.5666596,0 L25.0935642,0 C25.6417521,0 26.1169496,0.309828769 26.3554987,0.763452302 L44.8119795,0.763452302 C45.2138065,0.296523239 45.8082786,0 46.4711791,0 C47.6781807,0 48.6602239,0.982043151 48.6602239,2.1890448 C48.6602239,3.39614148 47.6781807,4.3780896 46.4711791,4.3780896 C45.8082786,4.3780896 45.2138065,4.08156636 44.8119795,3.61463729 L35.7834171,3.61463729 Z M39.2270783,30.2426143 C39.4946145,30.6116526 39.5694106,31.0862799 39.4285621,31.5197551 L34.1793404,47.6751395 C33.9885011,48.2625786 33.4411686,48.6602239 32.8235069,48.6602239 L15.8366219,48.6602239 C15.2190553,48.6602239 14.6716277,48.2626737 14.4807884,47.6751395 L9.23156677,31.5197551 C9.09062319,31.0862799 9.16560936,30.6116526 9.43295547,30.2426143 L22.9045194,11.6522228 L22.9045194,35.6502668 C22.4375904,36.0519987 22.1410671,36.6464708 22.1410671,37.3093713 C22.1410671,38.516468 23.1231103,39.4984161 24.3301119,39.4984161 C25.5371136,39.4984161 26.5191567,38.516468 26.5191567,37.3093713 C26.5191567,36.6464708 26.2226335,36.0519987 25.7557044,35.6502668 L25.7557044,11.6522228 L39.2270783,30.2426143 Z" transform="translate(6 6)"/>
</svg>
