<svg xmlns="http://www.w3.org/2000/svg" width="60" height="60" viewBox="0 0 60 60">
  <defs>
    <linearGradient id="love-a" x1="50%" x2="50%" y1="0%" y2="84.148%">
      <stop offset="0%" stop-color="#fc5b63"/>
      <stop offset="100%" stop-color="#fc5b63"/>
    </linearGradient>
  </defs>
  <path fill="url(#love-a)" d="M39.0564602,30.5764757 C38.4582295,22.7878481 34.831921,17.9070401 31.632789,13.5999828 C28.6705014,9.61259386 26.1120322,6.16927361 26.1120322,1.08987134 C26.1120322,0.681870841 25.8835519,0.308958381 25.5212475,0.121992151 C25.157821,-0.0660960816 24.7211585,-0.0352920435 24.3907801,0.204816253 C19.5861662,3.64283249 15.5773572,9.43735764 14.1769975,14.9661725 C13.2048343,18.8153512 13.0762121,23.1426046 13.0581581,26.0005461 C8.62115264,25.0528629 7.6160434,18.4159187 7.60543538,18.3436006 C7.55545532,17.9993502 7.34513106,17.6997758 7.03913069,17.5361676 C6.7299683,17.3747014 6.36654186,17.3629714 6.05309547,17.5181136 C5.82043318,17.6307218 0.342108422,20.4143052 0.0233580288,31.5283409 C0.00102000126,31.8980914 0,32.2689638 0,32.6397343 C0,43.4371616 8.78578084,52.2224324 19.5840242,52.2224324 C19.5989162,52.2234524 19.6148282,52.2255944 19.6275782,52.2224324 C19.6318622,52.2224324 19.6360442,52.2224324 19.6413482,52.2224324 C30.4130715,52.1915264 39.1680483,43.4180876 39.1680483,32.6397343 C39.1680483,32.0967876 39.0564602,30.5764757 39.0564602,30.5764757 Z M19.5840242,50.0465658 C15.9842357,50.0465658 13.0560161,46.9272999 13.0560161,43.0930132 C13.0560161,42.962351 13.0549961,42.8305668 13.0644821,42.6691007 C13.1080362,41.0520927 13.4151586,39.9482473 13.751963,39.2140504 C14.3831397,40.5697341 15.5114651,41.8159716 17.3443054,41.8159716 C17.9456981,41.8159716 18.4323407,41.329329 18.4323407,40.7280383 C18.4323407,39.1790643 18.4642668,37.3920221 18.8499293,35.7791961 C19.1931597,34.3491544 20.0133427,32.8277205 21.05252,31.608105 C21.5146825,33.191147 22.4157517,34.4723705 23.2955027,35.7228921 C24.5545923,37.5119743 25.8561139,39.3617466 26.0845942,42.5161005 C26.0983642,42.7030667 26.1122362,42.8911549 26.1122362,43.0930132 C26.1120322,46.9271979 23.1838126,50.0465658 19.5840242,50.0465658 Z" transform="translate(10 4)"/>
</svg>
