<svg xmlns="http://www.w3.org/2000/svg" width="60" height="60" viewBox="0 0 60 60">
  <defs>
    <linearGradient id="mobile-a" x1="-5.889%" y1="0%" y2="100%">
      <stop offset="0%" stop-color="#6BB55B"/>
      <stop offset="100%" stop-color="#008F68"/>
    </linearGradient>
  </defs>
  <path fill="url(#mobile-a)" d="M28.8708925,0 L4.80016839,0 C2.49650044,0 0.636887938,1.86795157 0.636887938,4.16744998 L0.636887938,53.0469059 C0.636887938,55.3443195 2.49650044,57.2101863 4.80016839,57.2101863 L28.8708925,57.2101863 C31.1703909,57.2101863 33.0341729,55.3443195 33.0341729,53.0469059 L33.0341729,4.16744998 C33.0341729,1.86795157 31.1703909,0 28.8708925,0 Z M10.8960282,2.53090759 L22.7792022,2.53090759 C23.0794087,2.53090759 23.3233265,2.97913258 23.3233265,3.5336807 C23.3233265,4.08822882 23.0794087,4.53853858 22.7792022,4.53853858 L10.8960282,4.53853858 C10.5937369,4.53853858 10.3539887,4.08822882 10.3539887,3.5336807 C10.3539887,2.97913258 10.5937369,2.53090759 10.8960282,2.53090759 Z M16.8376152,53.0969403 C15.3720237,53.0969403 14.1795368,51.9044533 14.1795368,50.4367771 C14.1795368,48.9691009 15.3720237,47.7807835 16.8376152,47.7807835 C18.2990371,47.7807835 19.4915241,48.9691009 19.4915241,50.4367771 C19.4915241,51.9044533 18.2990371,53.0969403 16.8376152,53.0969403 Z M29.915361,43.9885916 L3.7577847,43.9885916 L3.7577847,7.03192036 L29.915361,7.03192036 L29.915361,43.9885916 Z" transform="translate(14.357 1.623)"/>
</svg>
