<svg xmlns="http://www.w3.org/2000/svg" width="60" height="60" viewBox="0 0 60 60">
  <defs>
    <linearGradient id="mutual-a" x1="0%" x2="50%" y1="-25.577%" y2="100%">
      <stop offset="0%" stop-color="#FA983F"/>
      <stop offset="100%" stop-color="#FD6868"/>
    </linearGradient>
  </defs>
  <path fill="url(#mutual-a)" d="M51.9476045,18.5788283 L51.9476045,10.7532385 L46.2669557,10.7532385 C46.7679912,9.88934547 47.0565172,8.88727453 47.0565172,7.81873588 C47.0565172,4.58241374 44.423647,1.9495435 41.1873249,1.9495435 C37.9510027,1.9495435 35.3181325,4.58241374 35.3181325,7.81873588 C35.3181325,8.88727453 35.6066585,9.88934547 36.107694,10.7532385 L14.1203628,10.7532385 L16.0767603,0.971251149 L4.67146298,0.971251149 L6.62786044,10.7532385 L0.103165375,10.7532385 L0.103165375,18.5788283 L11.1989665,18.5788283 L21.0936681,29.2981039 L7.51216183,44.0119953 L17.3748466,44.0119953 L26.0253849,34.6404227 L34.6757361,44.0119953 L44.5386081,44.0119953 L30.9565401,29.2981039 L40.8516161,18.5788283 L51.9476045,18.5788283 Z M41.1875121,4.88404607 C42.2710294,4.88404607 43.2167432,5.47570231 43.7248935,6.35139098 L38.6499434,6.35139098 C39.158281,5.47570231 40.1039948,4.88404607 41.1875121,4.88404607 Z M43.7250807,9.28608079 C43.2165559,10.1617695 42.2708421,10.7534257 41.1876993,10.7534257 C40.1045565,10.7534257 39.158281,10.1617695 38.6501307,9.28608079 L43.7250807,9.28608079 Z M12.4970528,3.90594096 L11.1276308,10.7532385 L9.62059248,10.7532385 L8.25117043,3.90594096 L12.4970528,3.90594096 L12.4970528,3.90594096 Z M3.03766795,15.6443257 L3.03766795,13.6879283 L49.0129147,13.6879283 L49.0129147,15.6443257 L3.03766795,15.6443257 Z M30.9887441,18.5788283 L26.0253849,23.9557852 L21.0620257,18.5788283 L30.9887441,18.5788283 L30.9887441,18.5788283 Z M16.0900538,41.0774927 L14.214541,41.0774927 L23.0906951,31.4613939 L24.0283579,32.47732 L16.0900538,41.0774927 Z M37.8362289,41.0774927 L35.9609033,41.0774927 L15.1930206,18.5790155 L17.0683462,18.5790155 L37.8362289,41.0774927 Z M28.9597003,27.1350013 L28.0220375,26.1190751 L34.9824237,18.5790155 L36.8577493,18.5790155 L28.9597003,27.1350013 Z" transform="translate(4 8)"/>
</svg>
